<?xml version="1.0" encoding="UTF-8" standalone="no"?>
<!--~
  ~ Germinate Builder is written and developed by Sebastian Raubach and Paul Shaw from the Information and Computational Sciences Group at JHI Dundee. For
  ~ further information contact us at germinate@hutton.ac.uk or visit our webpages at http://ics.hutton.ac.uk/germinate
  ~
  ~ Copyright © 2015-2017, Information & Computational Sciences, The James Hutton Institute. All rights reserved. Use is subject to the accompanying
  ~ licence terms.
  -->

<svg
	height="124.99999"
	id="svg2"
	version="1.1"
	width="255.39079"
	xmlns="http://www.w3.org/2000/svg"
	xmlns:cc="http://creativecommons.org/ns#"
	xmlns:dc="http://purl.org/dc/elements/1.1/"
	xmlns:inkscape="http://www.inkscape.org/namespaces/inkscape"
	xmlns:rdf="http://www.w3.org/1999/02/22-rdf-syntax-ns#"
	xmlns:sodipodi="http://sodipodi.sourceforge.net/DTD/sodipodi-0.dtd"
	xmlns:xlink="http://www.w3.org/1999/xlink"
	inkscape:version="0.92.1 r15371"
	sodipodi:docname="builder-logo-v2.svg">
	<sodipodi:namedview
		bordercolor="#666666"
		borderopacity="1"
		fit-margin-bottom="0"
		fit-margin-left="0"
		fit-margin-right="0"
		fit-margin-top="0"
		gridtolerance="10"
		guidetolerance="10"
		id="namedview58"
		objecttolerance="10"
		pagecolor="#ffffff"
		showgrid="false"
		inkscape:current-layer="svg2"
		inkscape:cx="-150.32086"
		inkscape:cy="52.499988"
		inkscape:pageopacity="0"
		inkscape:pageshadow="2"
		inkscape:window-height="1017"
		inkscape:window-maximized="1"
		inkscape:window-width="1920"
		inkscape:window-x="-8"
		inkscape:window-y="-8"
		inkscape:zoom="1.3238349"/>
	<defs
		id="defs4">
		<linearGradient
			id="linearGradient3822">
			<stop
				style="stop-color:#008f00;stop-opacity:1;"
				id="stop3824"
				offset="0"/>
			<stop
				style="stop-color:#ffffff;stop-opacity:1;"
				id="stop3826"
				offset="1"/>
		</linearGradient>
		<linearGradient
			id="linearGradient3795">
			<stop
				style="stop-color:#2f9600;stop-opacity:1;"
				id="stop3797"
				offset="0"/>
			<stop
				style="stop-color:#ffffff;stop-opacity:1;"
				id="stop3799"
				offset="1"/>
		</linearGradient>
		<linearGradient
			gradientTransform="matrix(-0.53167848,0,0,0.71443954,433.89361,175.30088)"
			gradientUnits="userSpaceOnUse"
			id="linearGradient4158"
			x1="275.55096"
			x2="269.84589"
			y1="168.02112"
			y2="158.97551"
			xlink:href="#linearGradient3822"/>
		<linearGradient
			gradientTransform="matrix(0.85440613,0,0,0.85440613,65.07178,151.79594)"
			gradientUnits="userSpaceOnUse"
			id="linearGradient4164"
			x1="275.55096"
			x2="269.84589"
			y1="168.02112"
			y2="158.97551"
			xlink:href="#linearGradient3822"/>
		<linearGradient
			gradientTransform="translate(59.366541,135.15201)"
			gradientUnits="userSpaceOnUse"
			id="linearGradient4239"
			x1="289.23138"
			x2="281.02191"
			y1="151.37416"
			y2="143.24072"
			xlink:href="#linearGradient3795"/>
		<linearGradient
			gradientTransform="matrix(0.85440613,0,0,0.85440613,64.357366,151.40627)"
			gradientUnits="userSpaceOnUse"
			id="linearGradient3083"
			x1="289.23138"
			x2="281.02191"
			y1="151.37416"
			y2="143.24072"
			xlink:href="#linearGradient3795"/>
		<linearGradient
			gradientUnits="userSpaceOnUse"
			id="linearGradient3866"
			x1="338.54877"
			x2="328.88077"
			y1="282.63428"
			y2="274.08105"
			xlink:href="#linearGradient3795"/>
		<linearGradient
			gradientUnits="userSpaceOnUse"
			id="linearGradient3875"
			x1="335.63193"
			x2="328.57141"
			y1="281.57361"
			y2="274.83234"
			xlink:href="#linearGradient3795"/>
		<linearGradient
			gradientUnits="userSpaceOnUse"
			id="linearGradient3891"
			x1="335.63193"
			x2="328.57141"
			y1="281.57361"
			y2="274.83234"
			xlink:href="#linearGradient3795"/>
		<linearGradient
			gradientUnits="userSpaceOnUse"
			id="linearGradient3905"
			x1="335.63193"
			x2="328.57141"
			y1="281.57361"
			y2="274.83234"
			xlink:href="#linearGradient3795"/>
		<linearGradient
			gradientUnits="userSpaceOnUse"
			id="linearGradient3907"
			x1="335.63193"
			x2="328.57141"
			y1="281.57361"
			y2="274.83234"
			xlink:href="#linearGradient3795"/>
		<linearGradient
			gradientTransform="matrix(0.82893583,0,0,0.82893583,-85.082805,-106.91211)"
			gradientUnits="userSpaceOnUse"
			id="linearGradient4131"
			x1="275.55096"
			x2="269.84589"
			y1="168.02112"
			y2="158.97551"
			xlink:href="#linearGradient3822"/>
		<linearGradient
			gradientUnits="userSpaceOnUse"
			id="linearGradient4133"
			x1="335.63193"
			x2="328.57141"
			y1="281.57361"
			y2="274.83234"
			xlink:href="#linearGradient3795"/>
		<linearGradient
			gradientTransform="matrix(-0.51582886,0,0,0.69314172,272.74425,-84.107873)"
			gradientUnits="userSpaceOnUse"
			id="linearGradient4135"
			x1="275.55096"
			x2="269.84589"
			y1="168.02112"
			y2="158.97551"
			xlink:href="#linearGradient3822"/>
		<linearGradient
			gradientUnits="userSpaceOnUse"
			id="linearGradient4137"
			x1="335.63193"
			x2="328.57141"
			y1="281.57361"
			y2="274.83234"
			xlink:href="#linearGradient3795"/>
		<linearGradient
			id="linearGradient8796">
			<stop
				style="stop-color:#001000;stop-opacity:1"
				id="stop8792"
				offset="0"/>
			<stop
				style="stop-color:#00acef;stop-opacity:0"
				id="stop8794"
				offset="1"/>
		</linearGradient>
		<linearGradient
			gradientTransform="matrix(0.19973651,0,0,0.19973651,0,73.867446)"
			gradientUnits="userSpaceOnUse"
			id="linearGradient8798"
			x1="32"
			x2="336"
			y1="32"
			y2="336"
			xlink:href="#linearGradient8796"/>
	</defs>
	<metadata
		id="metadata7">
		<rdf:RDF>
			<cc:Work
				rdf:about="">
				<dc:format>image/svg+xml</dc:format>
				<dc:type
					rdf:resource="http://purl.org/dc/dcmitype/StillImage"/>
				<dc:title/>
			</cc:Work>
		</rdf:RDF>
	</metadata>
	<path
		style="fill:url(#linearGradient4131);fill-opacity:1;stroke:#2f8600;stroke-width:0.24868074;stroke-miterlimit:4;stroke-dasharray:none;stroke-opacity:0.95294118"
		d="m 136.33543,33.689816 12.16098,-9.262524 -8.31734,9.577572 z"
		id="path3820"
		inkscape:connector-curvature="0"/>
	<g
		id="g3884"
		transform="matrix(0.97018948,0,0,0.97018948,-172.31148,-254.91184)">
		<path
			style="fill:#2f9600;fill-opacity:1;stroke:none"
			d="m 327.56315,289.89401 c -0.61326,-0.57197 -1.13726,-1.26211 -1.50573,-2.01542 -0.46659,-0.95392 -0.71979,-2.01727 -0.84417,-3.07188 -0.14714,-1.24764 -0.21931,-2.55881 0.12586,-3.76674 0.34608,-1.21109 1.02005,-2.36057 1.8883,-3.27307 0.71141,-0.74767 1.68942,-1.19588 2.60167,-1.6785 1.39619,-0.73862 2.91316,-1.22205 4.36408,-1.84634 1.57073,-0.67584 3.18022,-1.27196 4.69978,-2.05615 1.667,-0.86027 3.3274,-1.76662 4.82566,-2.89539 1.14612,-0.8635 2.1602,-1.8957 3.14717,-2.93738 1.07904,-1.13882 3.0213,-3.60875 3.0213,-3.60875 0,0 -0.14552,2.12809 -0.25178,3.18914 -0.19656,1.96281 -0.41844,3.92426 -0.71336,5.87472 -0.34005,2.24889 -0.5983,4.52525 -1.21691,6.71397 -0.55529,1.96468 -1.21495,3.93202 -2.224,5.70688 -0.95556,1.68075 -2.14152,3.26751 -3.5668,4.57388 -1.02005,0.93494 -2.20129,1.73689 -3.48287,2.25858 -1.45382,0.5918 -3.04911,0.85317 -4.61709,0.92564 -1.20214,0.0556 -2.45517,0.0198 -3.59021,-0.38013 -0.99494,-0.35054 -1.88947,-0.99357 -2.6609,-1.71306 z"
			id="path3088"
			inkscape:connector-curvature="0"/>
		<g
			id="g3877">
			<path
				style="fill:url(#linearGradient4133);fill-opacity:1;stroke:none"
				d="m 327.83369,289.21943 c -0.553,-0.54542 -1.02032,-1.19795 -1.34199,-1.90495 -0.40734,-0.89528 -0.61427,-1.88635 -0.70215,-2.86601 -0.10394,-1.15896 -0.13687,-2.37479 0.21398,-3.48425 0.35174,-1.11236 1.00547,-2.15921 1.83298,-2.98161 0.678,-0.67385 1.59511,-1.06354 2.45222,-1.48679 1.31178,-0.64776 2.7288,-1.05611 4.08832,-1.59661 1.47177,-0.58513 2.97736,-1.09544 4.40456,-1.78219 1.56568,-0.7534 3.12645,-1.54961 4.54282,-2.55595 1.08351,-0.76986 2.04909,-1.69931 2.98986,-2.63825 1.0285,-1.02649 2.89065,-3.2631 2.89065,-3.2631 0,0 -0.18977,1.96658 -0.31558,2.94621 -0.23277,1.81222 -0.48892,3.62254 -0.81243,5.4208 -0.37299,2.07338 -0.67099,4.17435 -1.30032,6.1848 -0.56495,1.8047 -1.22659,3.60913 -2.20675,5.22632 -0.92818,1.53145 -2.06726,2.96991 -3.42067,4.14258 -0.96863,0.83926 -2.08305,1.5512 -3.28312,2.00109 -1.36135,0.51033 -2.84515,0.71107 -4.29877,0.73762 -1.11445,0.0204 -2.27368,-0.0451 -3.31424,-0.44481 -0.91212,-0.35027 -1.72371,-0.96878 -2.41934,-1.6549 z"
				id="path3858"
				inkscape:connector-curvature="0"/>
			<path
				style="fill:none;stroke:#2f8200;stroke-width:0.64080459;stroke-linecap:butt;stroke-linejoin:miter;stroke-miterlimit:4;stroke-dasharray:none;stroke-opacity:1"
				d="m 328.37716,289.7201 c 0,0 0.008,-0.009 0.0332,-0.042 0.25402,-0.3415 3.53817,-5.38096 5.61968,-7.50687 2.08152,-2.12591 4.48719,-3.02937 6.60225,-5.04468 2.11507,-2.01531 4.33433,-4.43353 5.81648,-6.72749 1.48214,-2.29395 2.80311,-6.16685 2.80311,-6.16685"
				id="path3868"
				inkscape:connector-curvature="0"/>
			<path
				style="fill:#2f9600;fill-opacity:1;stroke:none"
				d="m 344.84375,0.78125 c 0,0 -1.92096,2.45493 -3,3.59375 -0.98697,1.04168 -2.01013,2.074 -3.15625,2.9375 -1.49826,1.12877 -3.1455,2.04598 -4.8125,2.90625 -1.51956,0.78419 -3.14802,1.38666 -4.71875,2.0625 -1.45092,0.62429 -2.97881,1.10513 -4.375,1.84375 -0.91225,0.48262 -1.88234,0.90858 -2.59375,1.65625 -0.86825,0.9125 -1.52892,2.07016 -1.875,3.28125 -0.34517,1.20793 -0.27214,2.53361 -0.125,3.78125 0.12438,1.05461 0.37716,2.10858 0.84375,3.0625 0.36847,0.75331 0.88674,1.45928 1.5,2.03125 0.77143,0.71949 1.66131,1.33696 2.65625,1.6875 1.13504,0.39993 2.39161,0.4306 3.59375,0.375 1.56798,-0.07247 3.17118,-0.31445 4.625,-0.90625 1.28158,-0.52169 2.4487,-1.31506 3.46875,-2.25 1.42528,-1.30637 2.60694,-2.913 3.5625,-4.59375 1.00905,-1.77486 1.66346,-3.72282 2.21875,-5.6875 0.61861,-2.18872 0.8787,-4.46986 1.21875,-6.71875 0.29492,-1.95046 0.52219,-3.91219 0.71875,-5.875 0.10626,-1.06105 0.25,-3.1875 0.25,-3.1875 z m -0.6875,1.90625 c 0,0 -0.18669,1.95787 -0.3125,2.9375 -0.23277,1.81222 -0.48899,3.63924 -0.8125,5.4375 -0.37299,2.07338 -0.65192,4.17705 -1.28125,6.1875 -0.56495,1.8047 -1.23859,3.60156 -2.21875,5.21875 -0.92818,1.53145 -2.05284,2.95233 -3.40625,4.125 -0.96863,0.83926 -2.08118,1.58136 -3.28125,2.03125 -1.36135,0.51033 -2.85888,0.6922 -4.3125,0.71875 -1.11445,0.0204 -2.27194,-0.03779 -3.3125,-0.4375 -0.91212,-0.35027 -1.71062,-0.97013 -2.40625,-1.65625 -0.553,-0.54542 -1.02208,-1.19925 -1.34375,-1.90625 -0.40734,-0.89528 -0.63087,-1.89534 -0.71875,-2.875 -0.10394,-1.15896 -0.1321,-2.35929 0.21875,-3.46875 0.35174,-1.11236 1.01624,-2.1776 1.84375,-3 0.678,-0.67385 1.58039,-1.0455 2.4375,-1.46875 1.31178,-0.64776 2.73423,-1.05325 4.09375,-1.59375 1.47177,-0.58513 2.97905,-1.0945 4.40625,-1.78125 1.56568,-0.7534 3.11488,-1.55616 4.53125,-2.5625 1.08351,-0.76986 2.05923,-1.71731 3,-2.65625 1.0285,-1.02649 2.875,-3.25 2.875,-3.25 z"
				id="path3872"
				transform="translate(5.0332218,261.97177)"
				inkscape:connector-curvature="0"/>
		</g>
	</g>
	<path
		style="fill:url(#linearGradient4135);fill-opacity:1;stroke:#2f8600;stroke-width:0.17938457;stroke-miterlimit:4;stroke-dasharray:none;stroke-opacity:0.95294118"
		d="m 134.96044,33.461019 -7.56751,-7.745155 5.17571,8.008595 z"
		id="path3830"
		inkscape:connector-curvature="0"/>
	<g
		id="g3893"
		transform="matrix(-0.7049879,0,0,0.7049879,361.25733,-175.71299)">
		<path
			style="fill:#2f9600;fill-opacity:1;stroke:none"
			d="m 327.56315,289.89401 c -0.61326,-0.57197 -1.13726,-1.26211 -1.50573,-2.01542 -0.46659,-0.95392 -0.71979,-2.01727 -0.84417,-3.07188 -0.14714,-1.24764 -0.21931,-2.55881 0.12586,-3.76674 0.34608,-1.21109 1.02005,-2.36057 1.8883,-3.27307 0.71141,-0.74767 1.68942,-1.19588 2.60167,-1.6785 1.39619,-0.73862 2.91316,-1.22205 4.36408,-1.84634 1.57073,-0.67584 3.18022,-1.27196 4.69978,-2.05615 1.667,-0.86027 3.3274,-1.76662 4.82566,-2.89539 1.14612,-0.8635 2.1602,-1.8957 3.14717,-2.93738 1.07904,-1.13882 3.0213,-3.60875 3.0213,-3.60875 0,0 -0.14552,2.12809 -0.25178,3.18914 -0.19656,1.96281 -0.41844,3.92426 -0.71336,5.87472 -0.34005,2.24889 -0.5983,4.52525 -1.21691,6.71397 -0.55529,1.96468 -1.21495,3.93202 -2.224,5.70688 -0.95556,1.68075 -2.14152,3.26751 -3.5668,4.57388 -1.02005,0.93494 -2.20129,1.73689 -3.48287,2.25858 -1.45382,0.5918 -3.04911,0.85317 -4.61709,0.92564 -1.20214,0.0556 -2.45517,0.0198 -3.59021,-0.38013 -0.99494,-0.35054 -1.88947,-0.99357 -2.6609,-1.71306 z"
			id="path3895"
			inkscape:connector-curvature="0"/>
		<g
			id="g3897">
			<path
				style="fill:url(#linearGradient4137);fill-opacity:1;stroke:none"
				d="m 327.83369,289.21943 c -0.553,-0.54542 -1.02032,-1.19795 -1.34199,-1.90495 -0.40734,-0.89528 -0.61427,-1.88635 -0.70215,-2.86601 -0.10394,-1.15896 -0.13687,-2.37479 0.21398,-3.48425 0.35174,-1.11236 1.00547,-2.15921 1.83298,-2.98161 0.678,-0.67385 1.59511,-1.06354 2.45222,-1.48679 1.31178,-0.64776 2.7288,-1.05611 4.08832,-1.59661 1.47177,-0.58513 2.97736,-1.09544 4.40456,-1.78219 1.56568,-0.7534 3.12645,-1.54961 4.54282,-2.55595 1.08351,-0.76986 2.04909,-1.69931 2.98986,-2.63825 1.0285,-1.02649 2.89065,-3.2631 2.89065,-3.2631 0,0 -0.18977,1.96658 -0.31558,2.94621 -0.23277,1.81222 -0.48892,3.62254 -0.81243,5.4208 -0.37299,2.07338 -0.67099,4.17435 -1.30032,6.1848 -0.56495,1.8047 -1.22659,3.60913 -2.20675,5.22632 -0.92818,1.53145 -2.06726,2.96991 -3.42067,4.14258 -0.96863,0.83926 -2.08305,1.5512 -3.28312,2.00109 -1.36135,0.51033 -2.84515,0.71107 -4.29877,0.73762 -1.11445,0.0204 -2.27368,-0.0451 -3.31424,-0.44481 -0.91212,-0.35027 -1.72371,-0.96878 -2.41934,-1.6549 z"
				id="path3899"
				inkscape:connector-curvature="0"/>
			<path
				style="fill:none;stroke:#2f8200;stroke-width:0.64080459;stroke-linecap:butt;stroke-linejoin:miter;stroke-miterlimit:4;stroke-dasharray:none;stroke-opacity:1"
				d="m 328.37716,289.7201 c 0,0 0.008,-0.009 0.0332,-0.042 0.25402,-0.3415 3.53817,-5.38096 5.61968,-7.50687 2.08152,-2.12591 4.48719,-3.02937 6.60225,-5.04468 2.11507,-2.01531 4.33433,-4.43353 5.81648,-6.72749 1.48214,-2.29395 2.80311,-6.16685 2.80311,-6.16685"
				id="path3901"
				inkscape:connector-curvature="0"/>
			<path
				style="fill:#2f9600;fill-opacity:1;stroke:none"
				d="m 344.84375,0.78125 c 0,0 -1.92096,2.45493 -3,3.59375 -0.98697,1.04168 -2.01013,2.074 -3.15625,2.9375 -1.49826,1.12877 -3.1455,2.04598 -4.8125,2.90625 -1.51956,0.78419 -3.14802,1.38666 -4.71875,2.0625 -1.45092,0.62429 -2.97881,1.10513 -4.375,1.84375 -0.91225,0.48262 -1.88234,0.90858 -2.59375,1.65625 -0.86825,0.9125 -1.52892,2.07016 -1.875,3.28125 -0.34517,1.20793 -0.27214,2.53361 -0.125,3.78125 0.12438,1.05461 0.37716,2.10858 0.84375,3.0625 0.36847,0.75331 0.88674,1.45928 1.5,2.03125 0.77143,0.71949 1.66131,1.33696 2.65625,1.6875 1.13504,0.39993 2.39161,0.4306 3.59375,0.375 1.56798,-0.07247 3.17118,-0.31445 4.625,-0.90625 1.28158,-0.52169 2.4487,-1.31506 3.46875,-2.25 1.42528,-1.30637 2.60694,-2.913 3.5625,-4.59375 1.00905,-1.77486 1.66346,-3.72282 2.21875,-5.6875 0.61861,-2.18872 0.8787,-4.46986 1.21875,-6.71875 0.29492,-1.95046 0.52219,-3.91219 0.71875,-5.875 0.10626,-1.06105 0.25,-3.1875 0.25,-3.1875 z m -0.6875,1.90625 c 0,0 -0.18669,1.95787 -0.3125,2.9375 -0.23277,1.81222 -0.48899,3.63924 -0.8125,5.4375 -0.37299,2.07338 -0.65192,4.17705 -1.28125,6.1875 -0.56495,1.8047 -1.23859,3.60156 -2.21875,5.21875 -0.92818,1.53145 -2.05284,2.95233 -3.40625,4.125 -0.96863,0.83926 -2.08118,1.58136 -3.28125,2.03125 -1.36135,0.51033 -2.85888,0.6922 -4.3125,0.71875 -1.11445,0.0204 -2.27194,-0.03779 -3.3125,-0.4375 -0.91212,-0.35027 -1.71062,-0.97013 -2.40625,-1.65625 -0.553,-0.54542 -1.02208,-1.19925 -1.34375,-1.90625 -0.40734,-0.89528 -0.63087,-1.89534 -0.71875,-2.875 -0.10394,-1.15896 -0.1321,-2.35929 0.21875,-3.46875 0.35174,-1.11236 1.01624,-2.1776 1.84375,-3 0.678,-0.67385 1.58039,-1.0455 2.4375,-1.46875 1.31178,-0.64776 2.73423,-1.05325 4.09375,-1.59375 1.47177,-0.58513 2.97905,-1.0945 4.40625,-1.78125 1.56568,-0.7534 3.11488,-1.55616 4.53125,-2.5625 1.08351,-0.76986 2.05923,-1.71731 3,-2.65625 1.0285,-1.02649 2.875,-3.25 2.875,-3.25 z"
				id="path3903"
				transform="translate(5.0332218,261.97177)"
				inkscape:connector-curvature="0"/>
		</g>
	</g>
	<path
		style="font-style:normal;font-variant:normal;font-weight:bold;font-stretch:normal;font-size:72px;line-height:125%;font-family:'Myriad Pro Cond';-inkscape-font-specification:'Myriad Pro Cond Bold';letter-spacing:0px;word-spacing:0px;fill:#00acef;fill-opacity:1;stroke:none;stroke-width:0.97018337"
		d="M 28.434977,41.05365 H 15.791715 v 7.47419 h 4.260988 v 11.385929 c -0.360917,0.139715 -0.96631,0.20956 -1.816155,0.20956 -2.258583,0.06405 -4.255191,-1.094345 -5.989834,-3.475155 C 10.512036,54.267388 9.5981311,50.279983 9.5050001,44.685971 9.5807144,38.651055 10.669203,34.375507 12.770595,31.85934 c 2.101381,-2.516107 4.761584,-3.735607 7.980643,-3.658512 1.114691,3.6e-5 2.115905,0.08726 3.003643,0.261953 0.887679,0.174654 1.679334,0.436607 2.374965,0.785821 l 1.536762,-7.893298 c -0.736393,-0.363774 -1.743429,-0.683928 -3.02112,-0.960476 -1.277738,-0.276452 -2.808654,-0.421976 -4.592785,-0.436571 -5.253488,-0.05952 -9.834631,1.84094 -13.743441,5.70169 -3.9088096,3.860834 -6.01020247,10.039846 -6.30416676,18.53706 -0.06107143,4.092191 0.42784524,7.782726 1.46689286,11.071584 1.0390477,3.288881 2.5757977,5.931631 4.610262,7.928238 1.5309167,1.570214 3.34125,2.743155 5.4310119,3.518809 2.089738,0.775655 4.49381,1.16275 7.21225,1.161298 1.775393,-0.0175 3.568262,-0.192107 5.378631,-0.523893 1.81031,-0.331809 3.253917,-0.715988 4.330834,-1.152571 z"
		id="path4219"
		inkscape:connector-curvature="0"/>
	<path
		style="font-style:normal;font-variant:normal;font-weight:bold;font-stretch:normal;font-size:72px;line-height:125%;font-family:'Myriad Pro Cond';-inkscape-font-specification:'Myriad Pro Cond Bold';letter-spacing:0px;word-spacing:0px;fill:#00acef;fill-opacity:1;stroke:none;stroke-width:0.97018337"
		d="m 58.308179,53.627067 c 0.07274,-0.472953 0.136774,-1.08125 0.192096,-1.824905 0.05524,-0.743607 0.0844,-1.718631 0.08726,-2.92506 -0.02476,-5.228702 -1.040524,-9.230654 -3.047298,-12.005869 -2.006833,-2.775143 -4.856214,-4.175095 -8.548179,-4.199857 -3.932119,0.04512 -7.174428,1.666298 -9.72694,4.863464 -2.552524,3.197227 -3.873893,7.699786 -3.964108,13.507691 0.0175,5.377179 1.257334,9.518833 3.719631,12.424976 2.462286,2.906143 6.042203,4.375953 10.739798,4.409429 1.740464,-0.0071 3.42856,-0.149905 5.064286,-0.427845 1.635679,-0.277965 3.044369,-0.647595 4.22606,-1.108917 L 55.86331,59.774067 c -0.842631,0.291047 -1.811821,0.547178 -2.907607,0.768369 -1.095833,0.221202 -2.292047,0.337631 -3.588667,0.349262 -2.037381,0.02917 -3.725464,-0.51806 -5.064285,-1.641524 -1.338846,-1.123452 -2.049012,-2.997821 -2.1305,-5.623107 z M 42.172298,47.20065 c 0.02476,-1.823417 0.376893,-3.555167 1.056512,-5.195274 0.679595,-1.640048 1.74775,-2.516095 3.204476,-2.628178 1.351917,0.05095 2.332762,0.804785 2.942524,2.261464 0.609738,1.456726 0.909524,3.310726 0.899357,5.561988 z"
		id="path4221"
		inkscape:connector-curvature="0"/>
	<path
		style="font-style:normal;font-variant:normal;font-weight:bold;font-stretch:normal;font-size:72px;line-height:125%;font-family:'Myriad Pro Cond';-inkscape-font-specification:'Myriad Pro Cond Bold';letter-spacing:0px;word-spacing:0px;fill:#00acef;fill-opacity:1;stroke:none;stroke-width:0.97018337"
		d="m 63.821441,67.457817 h 9.150643 V 50.064591 c -1.1e-5,-0.705774 0.03488,-1.354822 0.104762,-1.947131 0.06988,-0.592274 0.174619,-1.084143 0.314346,-1.475631 0.535511,-1.728822 1.333,-2.968691 2.39244,-3.719631 1.059405,-0.750881 2.101369,-1.11762 3.125893,-1.100167 0.756714,-0.0119 1.408667,0.01191 1.955857,0.06988 V 32.88097 c -0.234321,-0.06988 -0.499167,-0.122214 -0.794571,-0.157178 -0.295441,-0.03488 -0.682536,-0.05238 -1.161286,-0.05238 -1.257369,0.006 -2.49725,0.483178 -3.719643,1.431964 -1.222429,0.948857 -2.217821,2.334262 -2.98619,4.156214 h -0.279405 l -0.488965,-4.959512 h -7.893309 c 0.07274,1.624096 0.136786,3.318012 0.192095,5.08175 0.05524,1.76381 0.08441,3.492643 0.08738,5.186536 z"
		id="path4223"
		inkscape:connector-curvature="0"/>
	<path
		style="font-style:normal;font-variant:normal;font-weight:bold;font-stretch:normal;font-size:72px;line-height:125%;font-family:'Myriad Pro Cond';-inkscape-font-specification:'Myriad Pro Cond Bold';letter-spacing:0px;word-spacing:0px;fill:#00acef;fill-opacity:1;stroke:none;stroke-width:0.97018337"
		d="m 84.352811,67.457817 h 9.150655 V 45.943305 c 9.76e-4,-0.496215 0.03345,-0.970631 0.09607,-1.423238 0.06262,-0.45256 0.146964,-0.839655 0.253226,-1.161286 0.330322,-1.044857 0.804738,-1.819048 1.423238,-2.322595 0.618465,-0.5035 1.284965,-0.753798 1.999512,-0.750917 1.381024,0.08155 2.251262,0.721833 2.610727,1.92094 0.359441,1.199155 0.513691,2.468131 0.462771,3.806953 v 21.444655 h 9.15066 V 45.803614 c -0.002,-0.494774 0.0189,-0.954631 0.0612,-1.379595 0.0421,-0.424917 0.11488,-0.779988 0.21827,-1.065238 0.28667,-0.983726 0.72616,-1.740464 1.31848,-2.270203 0.59225,-0.52969 1.29369,-0.797464 2.1043,-0.803309 1.32279,0.05095 2.1872,0.73494 2.59326,2.051917 0.40597,1.317035 0.58934,2.961464 0.55009,4.933321 v 20.18731 h 9.15065 v -21.72406 c 0.0145,-4.119809 -0.69566,-7.318464 -2.1305,-9.595964 -1.43492,-2.277441 -3.68184,-3.432917 -6.74075,-3.466417 -1.75798,3.6e-5 -3.3413,0.419143 -4.74994,1.257333 -0.67383,0.426429 -1.31705,0.935762 -1.92968,1.528024 -0.61269,0.592322 -1.13367,1.223905 -1.56296,1.89475 h -0.13969 c -0.59086,-1.478512 -1.50476,-2.625262 -2.74171,-3.440238 -1.23699,-0.814905 -2.81448,-1.228202 -4.73249,-1.239869 -1.756511,0.03202 -3.325273,0.47444 -4.706297,1.32719 -1.381059,0.85281 -2.513238,1.923881 -3.396571,3.213203 H 92.52562 l -0.488964,-3.911726 h -7.963155 c 0.07274,1.632821 0.136786,3.291821 0.192084,4.976976 0.05524,1.685214 0.0844,3.448988 0.08726,5.29131 z"
		id="path4225"
		inkscape:connector-curvature="0"/>
	<path
		style="font-style:normal;font-variant:normal;font-weight:bold;font-stretch:normal;font-size:72px;line-height:125%;font-family:'Myriad Pro Cond';-inkscape-font-specification:'Myriad Pro Cond Bold';letter-spacing:0px;word-spacing:0px;fill:#00acef;fill-opacity:1;stroke:none;stroke-width:0.97018951"
		d="M 141.05184,67.457817 V 33.299828 h -9.15072 v 34.157989 z"
		id="path4227"
		inkscape:connector-curvature="0"/>
	<path
		style="font-style:normal;font-variant:normal;font-weight:bold;font-stretch:normal;font-size:72px;line-height:125%;font-family:'Myriad Pro Cond';-inkscape-font-specification:'Myriad Pro Cond Bold';letter-spacing:0px;word-spacing:0px;fill:#00acef;fill-opacity:1;stroke:none;stroke-width:0.97018951"
		d="m 147.45448,67.457817 h 9.1507 V 46.641698 c 0.002,-0.667953 0.0495,-1.270429 0.13972,-1.807441 0.0902,-0.536964 0.20663,-0.982274 0.34925,-1.335928 0.3216,-1.014298 0.77855,-1.779762 1.37086,-2.296405 0.59228,-0.516607 1.27625,-0.775643 2.05193,-0.777119 1.30098,0.05679 2.19161,0.641809 2.67186,1.755047 0.48023,1.113298 0.70725,2.414322 0.68107,3.903024 v 21.374941 h 9.15072 V 45.524055 c 0.0276,-3.863703 -0.67383,-6.945953 -2.10433,-9.24675 -1.43056,-2.30075 -3.75607,-3.479512 -6.97654,-3.536298 -1.7929,0.02036 -3.39369,0.433702 -4.80237,1.239881 -1.40872,0.806262 -2.55545,1.883143 -3.44025,3.23069 h -0.13972 l -0.48896,-3.91175 h -7.89336 c 0.0727,1.632834 0.1368,3.291846 0.1921,4.977 0.0552,1.685227 0.0844,3.449012 0.0874,5.291346 z"
		id="path4229"
		inkscape:connector-curvature="0"/>
	<path
		style="font-style:normal;font-variant:normal;font-weight:bold;font-stretch:normal;font-size:72px;line-height:125%;font-family:'Myriad Pro Cond';-inkscape-font-specification:'Myriad Pro Cond Bold';letter-spacing:0px;word-spacing:0px;fill:#00acef;fill-opacity:1;stroke:none;stroke-width:0.97018951"
		d="m 202.43118,46.99096 c 0.14695,-3.649786 -0.56613,-6.897929 -2.13925,-9.744453 -1.57317,-2.846476 -4.88825,-4.34831 -9.94527,-4.5055 -2.43176,0.04226 -4.571,0.342012 -6.41773,0.899357 -1.84672,0.557393 -3.26997,1.119131 -4.26975,1.685191 l 1.67648,6.216893 c 1.03758,-0.634465 2.12321,-1.129262 3.25687,-1.48437 1.13365,-0.355059 2.37645,-0.5355 3.72839,-0.541357 1.63717,0.02476 2.85084,0.46425 3.64107,1.318465 0.7902,0.854273 1.18312,1.974821 1.17877,3.361678 v 0.768369 c -4.0442,-0.0024 -7.62123,0.998334 -10.73113,3.003667 -3.1099,2.005369 -4.74853,5.241869 -4.91588,9.709536 0.0524,3.058964 0.90807,5.532917 2.56709,7.421845 1.659,1.888929 3.80696,2.86106 6.44391,2.916357 1.51492,-0.0024 2.92071,-0.330345 4.21736,-0.986678 1.29663,-0.656322 2.40554,-1.631345 3.32674,-2.925084 h 0.20955 l 0.48898,3.352941 h 8.17277 c -0.17321,-1.164214 -0.29836,-2.415738 -0.37547,-3.754583 -0.0771,-1.338846 -0.115,-2.695155 -0.11345,-4.068929 z m -9.01101,9.779393 c -1e-5,0.31144 -0.0175,0.596654 -0.0524,0.85569 -0.0349,0.259036 -0.0873,0.509357 -0.15717,0.750917 -0.33619,1.0085 -0.85136,1.75069 -1.54549,2.226559 -0.69419,0.475881 -1.43637,0.711619 -2.22656,0.707262 -0.74802,0.0175 -1.46983,-0.331809 -2.16544,-1.047797 -0.69563,-0.715977 -1.06817,-1.903477 -1.11764,-3.562489 0.115,-2.318238 0.95029,-3.881178 2.50598,-4.688869 1.55565,-0.807655 3.14189,-1.200571 4.7587,-1.178762 z"
		id="path4231"
		inkscape:connector-curvature="0"/>
	<path
		style="font-style:normal;font-variant:normal;font-weight:bold;font-stretch:normal;font-size:72px;line-height:125%;font-family:'Myriad Pro Cond';-inkscape-font-specification:'Myriad Pro Cond Bold';letter-spacing:0px;word-spacing:0px;fill:#00acef;fill-opacity:1;stroke:none;stroke-width:0.97018337"
		d="m 210.45529,27.292745 v 6.007298 h -4.05144 v 6.496262 h 4.05144 v 16.135881 c 0.006,2.647119 0.25612,4.722309 0.75092,6.225595 0.49478,1.503274 1.19911,2.687845 2.11302,3.553726 0.84405,0.76256 1.8278,1.315548 2.95126,1.659 1.12345,0.343429 2.35169,0.512239 3.6847,0.506429 1.1933,-0.0048 2.26437,-0.06548 3.21322,-0.183369 0.94881,-0.117857 1.74046,-0.26631 2.37497,-0.44531 l -0.0699,-7.124928 c -0.41185,0.06988 -0.8106,0.12225 -1.19622,0.157166 -0.38567,0.03488 -0.80186,0.05238 -1.24861,0.05238 -0.90664,0.04226 -1.69539,-0.286678 -2.36625,-0.986666 -0.67088,-0.699965 -1.02306,-2.024238 -1.05651,-3.972834 v -15.57707 h 6.70582 v -6.496262 h -6.70582 v -8.871239 z"
		id="path4233"
		inkscape:connector-curvature="0"/>
	<path
		style="font-style:normal;font-variant:normal;font-weight:bold;font-stretch:normal;font-size:72px;line-height:125%;font-family:'Myriad Pro Cond';-inkscape-font-specification:'Myriad Pro Cond Bold';letter-spacing:0px;word-spacing:0px;fill:#00acef;fill-opacity:1;stroke:none;stroke-width:0.97018337"
		d="m 254.36102,53.627067 c 0.0727,-0.472953 0.13676,-1.08125 0.19209,-1.824905 0.0552,-0.743607 0.0844,-1.718631 0.0874,-2.92506 -0.0248,-5.228702 -1.04055,-9.230654 -3.04731,-12.005869 -2.00682,-2.775143 -4.85621,-4.175095 -8.54818,-4.199857 -3.93212,0.04512 -7.17443,1.666298 -9.72693,4.863464 -2.55252,3.197227 -3.87389,7.699786 -3.96413,13.507691 0.0175,5.377179 1.25735,9.518833 3.71965,12.424976 2.46228,2.906143 6.04221,4.375953 10.73978,4.409429 1.74048,-0.0071 3.42856,-0.149905 5.0643,-0.427845 1.63569,-0.277965 3.04437,-0.647595 4.22607,-1.108917 l -1.1875,-6.566107 c -0.84262,0.291047 -1.81182,0.547178 -2.90759,0.768369 -1.09584,0.221202 -2.29205,0.337631 -3.58867,0.349262 -2.03737,0.02917 -3.72548,-0.51806 -5.0643,-1.641524 -1.33884,-1.123452 -2.04901,-2.997821 -2.13049,-5.623107 z M 238.22513,47.20065 c 0.0248,-1.823417 0.37691,-3.555167 1.05652,-5.195274 0.67959,-1.640048 1.74775,-2.516095 3.20447,-2.628178 1.35192,0.05095 2.33276,0.804785 2.94254,2.261464 0.60972,1.456726 0.90951,3.310726 0.89934,5.561988 z"
		id="path4235"
		inkscape:connector-curvature="0"/>
	<g
		style="font-style:normal;font-variant:normal;font-weight:normal;font-stretch:normal;font-size:18.81076241px;line-height:0%;font-family:'Times New Roman';-inkscape-font-specification:'Times New Roman';letter-spacing:0px;word-spacing:0px;fill:#4e534e;fill-opacity:1;stroke:none;stroke-width:1.56756365"
		aria-label="BUILDER"
		id="text3185"
		transform="matrix(1.1904762,0,0,1.1904762,0,5.8929829e-6)">
		<path
			style="font-style:normal;font-variant:normal;font-weight:bold;font-stretch:normal;font-size:62.70253754px;line-height:1.25;font-family:'Myriad Pro Cond';-inkscape-font-specification:'Myriad Pro Cond Bold';fill:#4e534e;fill-opacity:1;stroke-width:1.56756365"
			d="m 54.652464,104.30994 c 1.316754,0.25081 3.19783,0.43892 6.332957,0.43892 4.828095,0 8.778355,-1.12865 11.161051,-3.82486 1.881077,-2.069182 3.009722,-4.890796 3.009722,-8.339435 0,-5.580526 -2.947019,-9.530786 -7.837817,-10.784837 v -0.188107 c 4.138368,-1.630266 6.521064,-5.078906 6.521064,-9.405381 0,-3.009722 -0.940538,-5.517823 -2.758912,-7.273494 -2.257291,-2.069184 -5.517823,-2.884317 -9.342678,-2.884317 -2.696209,0 -5.078905,0.313513 -7.085387,0.815133 z M 59.48056,66.124094 c 0.564323,-0.188108 1.442158,-0.313513 2.570804,-0.313513 5.141608,0 6.959982,3.009722 6.959982,6.959982 0,4.389178 -3.385937,7.461602 -7.336197,7.461602 H 59.48056 Z m 0,17.744818 h 2.131886 c 4.514583,0.0627 8.527545,2.821614 8.527545,8.65295 0,5.455121 -3.260532,8.402138 -8.214032,8.402138 -1.065943,0 -1.881076,-0.0627 -2.445399,-0.18811 z"
			id="path4564"
			inkscape:connector-curvature="0"/>
		<path
			style="font-style:normal;font-variant:normal;font-weight:bold;font-stretch:normal;font-size:62.70253754px;line-height:1.25;font-family:'Myriad Pro Cond';-inkscape-font-specification:'Myriad Pro Cond Bold';fill:#4e534e;fill-opacity:1;stroke-width:1.56756365"
			d="m 80.91993,62.236537 v 28.153439 c 0,10.471324 4.138367,14.609694 10.471323,14.609694 6.270254,0 10.784837,-4.20107 10.784837,-15.174017 V 62.236537 h -4.828095 v 28.341547 c 0,7.398899 -2.319994,10.157806 -5.894039,10.157806 -3.135127,0 -5.705931,-2.570799 -5.705931,-10.157806 V 62.236537 Z"
			id="path4566"
			inkscape:connector-curvature="0"/>
		<path
			style="font-style:normal;font-variant:normal;font-weight:bold;font-stretch:normal;font-size:62.70253754px;line-height:1.25;font-family:'Myriad Pro Cond';-inkscape-font-specification:'Myriad Pro Cond Bold';fill:#4e534e;fill-opacity:1;stroke-width:1.56756365"
			d="m 109.63965,62.236537 v 42.261513 h 4.8281 V 62.236537 Z"
			id="path4568"
			inkscape:connector-curvature="0"/>
		<path
			style="font-style:normal;font-variant:normal;font-weight:bold;font-stretch:normal;font-size:62.70253754px;line-height:1.25;font-family:'Myriad Pro Cond';-inkscape-font-specification:'Myriad Pro Cond Bold';fill:#4e534e;fill-opacity:1;stroke-width:1.56756365"
			d="m 122.13117,104.49805 h 16.67888 v -4.07567 H 126.95927 V 62.236537 h -4.8281 z"
			id="path4570"
			inkscape:connector-curvature="0"/>
		<path
			style="font-style:normal;font-variant:normal;font-weight:bold;font-stretch:normal;font-size:62.70253754px;line-height:1.25;font-family:'Myriad Pro Cond';-inkscape-font-specification:'Myriad Pro Cond Bold';fill:#4e534e;fill-opacity:1;stroke-width:1.56756365"
			d="m 143.68517,104.30994 c 1.37946,0.31351 3.44864,0.43892 5.39242,0.43892 4.8281,0 8.90376,-1.44216 11.66267,-4.51459 2.69621,-2.947015 5.07891,-8.214028 5.07891,-17.870219 0,-8.841058 -2.4454,-14.296178 -5.70593,-17.117793 -2.32,-2.069183 -5.51783,-3.197829 -9.907,-3.197829 -2.4454,0 -4.70269,0.25081 -6.52107,0.815133 z m 4.8281,-38.060441 c 0.62702,-0.188108 1.50486,-0.25081 2.25729,-0.25081 6.77187,0 10.0324,5.831336 10.0324,16.490767 0,14.421584 -5.1416,18.246434 -10.47132,18.246434 -0.43892,0 -1.12865,0 -1.81837,-0.1254 z"
			id="path4572"
			inkscape:connector-curvature="0"/>
		<path
			style="font-style:normal;font-variant:normal;font-weight:bold;font-stretch:normal;font-size:62.70253754px;line-height:1.25;font-family:'Myriad Pro Cond';-inkscape-font-specification:'Myriad Pro Cond Bold';fill:#4e534e;fill-opacity:1;stroke-width:1.56756365"
			d="M 187.03221,80.35757 H 176.43549 V 66.437607 h 11.28645 v -4.20107 h -16.11455 v 42.261513 h 16.86698 v -4.20107 H 176.43549 V 84.433235 h 10.59672 z"
			id="path4575"
			inkscape:connector-curvature="0"/>
		<path
			style="font-style:normal;font-variant:normal;font-weight:bold;font-stretch:normal;font-size:62.70253754px;line-height:1.25;font-family:'Myriad Pro Cond';-inkscape-font-specification:'Myriad Pro Cond Bold';fill:#4e534e;fill-opacity:1;stroke-width:1.56756365"
			d="m 193.77373,104.49805 h 4.82809 V 86.126203 h 1.88108 c 4.13837,0 5.95674,2.131887 6.89728,7.963223 0.81513,5.141608 1.63026,9.154574 2.25729,10.408624 h 4.8908 c -0.62703,-1.31676 -1.44216,-4.890801 -2.4454,-10.659435 -0.87784,-5.517823 -2.5081,-8.527545 -5.64323,-9.468083 v -0.125405 c 4.26377,-2.006481 6.77187,-5.517823 6.77187,-10.910241 0,-3.323235 -0.87783,-6.144849 -2.94702,-8.276735 -2.19459,-2.131887 -5.32971,-3.009722 -9.53078,-3.009722 -2.3827,0 -4.8908,0.25081 -6.95998,0.815133 z m 4.82809,-38.311254 c 0.62703,-0.188107 1.56756,-0.25081 2.5081,-0.25081 5.20431,0.0627 7.21079,3.135127 7.21079,7.963223 0,5.078905 -3.07242,8.464842 -7.71241,8.464842 h -2.00648 z"
			id="path4577"
			inkscape:connector-curvature="0"/>
	</g>
	<rect
		style="opacity:1;fill:#00acef;fill-opacity:1;stroke-width:0.19973651"
		height="51.132545"
		id="rect6760"
		ry="3.1957786"
		width="51.132545"
		x="0"
		y="73.867455"/>
	<path
		style="opacity:1;fill:url(#linearGradient8798);fill-opacity:1;stroke-width:0.25586751"
		d="m 39.108564,79.488936 c -1.666377,0.0032 -3.291653,0.65913 -4.502654,1.867459 l -3.99e-4,3.99e-4 c -1.610903,1.614652 -2.239316,3.965288 -1.648987,6.168416 l -3.99e-4,4e-4 c -0.0748,0.07481 -9.648991,9.648989 -9.648991,9.648989 l -4e-4,4e-4 c -0.07478,0.07479 -9.64897,9.648971 -9.64897,9.648971 h -3.99e-4 c -2.203146,-0.59018 -4.5538562,0.0383 -6.1684255,1.64939 -1.6111308,1.61467 -2.2397512,3.96555 -1.6493868,6.16881 l 0.059297,-0.0593 c 0.012486,0.0517 0.022461,0.1037 0.03628,0.15527 1.8e-6,0 0.054838,-0.0548 0.059687,-0.0597 0.012484,0.0517 0.022464,0.1037 0.03628,0.15527 l 0.059687,-0.0597 c 0.01248,0.0517 0.022079,0.10372 0.03589,0.15526 5.6e-6,0 0.054832,-0.0548 0.059687,-0.0597 0.01249,0.0517 0.022067,0.10367 0.03589,0.15526 7.2e-6,-10e-6 0.054502,-0.0545 0.059297,-0.0593 0.012486,0.0517 0.022461,0.1037 0.03628,0.15527 9.2e-6,-1e-5 0.054832,-0.0548 0.059687,-0.0597 0.012484,0.0517 0.022464,0.1037 0.03628,0.15526 1.1e-5,-10e-6 0.054827,-0.0548 0.059687,-0.0597 0.01248,0.0517 0.022079,0.10372 0.03589,0.15526 1.28e-5,-1e-5 0.054826,-0.0548 0.059687,-0.0597 0.01249,0.0517 0.022067,0.10367 0.03589,0.15526 1.46e-5,-2e-5 0.054496,-0.0545 0.059297,-0.0593 0.012485,0.0517 0.022461,0.10369 0.03628,0.15527 1.66e-5,-2e-5 0.054825,-0.0548 0.059687,-0.0597 0.012484,0.0517 0.022464,0.1037 0.03628,0.15526 1.84e-5,-2e-5 0.054821,-0.0548 0.059687,-0.0597 0.012479,0.0517 0.022079,0.10372 0.03589,0.15526 l 0.059687,-0.0597 c 0.012478,0.0517 0.022082,0.10372 0.03589,0.15527 2.2e-5,-2e-5 0.054819,-0.0548 0.059687,-0.0597 0.012511,0.0518 0.022431,0.10397 0.03628,0.15565 2.37e-5,-2e-5 0.054816,-0.0548 0.059687,-0.0597 0.01248,0.0517 0.022079,0.10372 0.03589,0.15526 2.58e-5,-2e-5 0.054815,-0.0548 0.059687,-0.0597 0.012479,0.0517 0.022079,0.10373 0.03589,0.15527 2.74e-5,-3e-5 0.054485,-0.0545 0.059297,-0.0593 0.012486,0.0517 0.022461,0.10369 0.03628,0.15526 2.92e-5,-2e-5 0.054815,-0.0548 0.059687,-0.0597 0.012484,0.0517 0.022464,0.1037 0.03628,0.15526 3.12e-5,-3e-5 0.05481,-0.0548 0.059687,-0.0597 0.01248,0.0517 0.022079,0.10372 0.03589,0.15526 l 0.059687,-0.0597 c 0.01249,0.0517 0.022067,0.10368 0.03589,0.15527 3.49e-5,-4e-5 0.054479,-0.0545 0.059297,-0.0593 0.012486,0.0517 0.022461,0.10369 0.03628,0.15526 3.53e-5,-3e-5 0.05481,-0.0548 0.059687,-0.0597 0.012484,0.0517 0.022464,0.1037 0.03628,0.15526 3.83e-5,-3e-5 0.054805,-0.0548 0.059687,-0.0597 0.01248,0.0517 0.022079,0.10372 0.03589,0.15527 4.15e-5,-3e-5 0.054802,-0.0548 0.059687,-0.0597 0.01249,0.0517 0.022066,0.10367 0.03589,0.15527 4.14e-5,-4e-5 0.054474,-0.0545 0.059297,-0.0593 0.012486,0.0517 0.022461,0.10369 0.03628,0.15526 h 3.995e-4 c 4.45e-5,-3e-5 0.054472,-0.0545 0.059297,-0.0593 0.012458,0.0516 0.022497,0.10343 0.03628,0.15487 4.48e-5,-3e-5 0.054799,-0.0548 0.059687,-0.0597 0.012479,0.0517 0.022079,0.10372 0.03589,0.15527 4.78e-5,-4e-5 0.054468,-0.0545 0.059297,-0.0593 0.012486,0.0517 0.022461,0.10369 0.03628,0.15526 4.8e-5,-6e-5 0.054799,-0.0548 0.059687,-0.0597 0.012484,0.0517 0.022464,0.1037 0.03628,0.15526 5.12e-5,-6e-5 0.054794,-0.0548 0.059687,-0.0597 0.012479,0.0517 0.022079,0.10372 0.03589,0.15527 5.45e-5,-7e-5 0.054791,-0.0548 0.059687,-0.0597 0.01249,0.0517 0.022067,0.10367 0.03589,0.15526 5.41e-5,-6e-5 0.054463,-0.0545 0.059297,-0.0593 0.012486,0.0517 0.022461,0.10369 0.03628,0.15526 5.73e-5,-6e-5 0.054791,-0.0548 0.059687,-0.0597 0.012484,0.0517 0.022464,0.10371 0.03628,0.15527 5.77e-5,-6e-5 0.054789,-0.0548 0.059687,-0.0597 0.012479,0.0517 0.022079,0.10372 0.03589,0.15527 6.09e-5,-7e-5 0.054786,-0.0548 0.059687,-0.0597 0.012489,0.0517 0.022066,0.10367 0.03589,0.15526 6.02e-5,-6e-5 0.054458,-0.0545 0.059297,-0.0593 0.012486,0.0517 0.022461,0.10369 0.03628,0.15526 h 3.995e-4 l 0.059297,-0.0593 c 0.012458,0.0516 0.022497,0.10344 0.03628,0.15488 6.73e-5,-7e-5 0.05478,-0.0548 0.059687,-0.0597 0.012479,0.0517 0.022079,0.10372 0.03589,0.15526 6.69e-5,-6e-5 0.05478,-0.0548 0.059687,-0.0597 0.012478,0.0517 0.022082,0.10372 0.03589,0.15526 7.05e-5,-6e-5 0.054779,-0.0548 0.059687,-0.0597 0.012511,0.0518 0.022431,0.10397 0.03628,0.15566 7.05e-5,-7e-5 0.054778,-0.0548 0.059687,-0.0597 0.01248,0.0517 0.022079,0.10372 0.03589,0.15527 7.33e-5,-7e-5 0.054775,-0.0548 0.059687,-0.0597 0.01248,0.0517 0.022079,0.10372 0.03589,0.15526 7.33e-5,-6e-5 0.054447,-0.0544 0.059297,-0.0593 0.012486,0.0517 0.022461,0.10369 0.03628,0.15526 7.69e-5,-7e-5 0.054775,-0.0548 0.059687,-0.0597 0.012484,0.0517 0.022464,0.1037 0.03628,0.15527 7.97e-5,-7e-5 0.054769,-0.0548 0.059687,-0.0597 0.01248,0.0517 0.02208,0.10372 0.03589,0.15526 8e-5,-9e-5 0.05477,-0.0548 0.05969,-0.0597 0.01249,0.0517 0.02207,0.10367 0.03589,0.15526 8.2e-5,-1e-4 0.05444,-0.0544 0.0593,-0.0593 0.01249,0.0517 0.02246,0.10369 0.03628,0.15527 8.3e-5,-1e-4 0.05477,-0.0548 0.05969,-0.0597 0.01248,0.0517 0.02246,0.1037 0.03628,0.15526 8.6e-5,-9e-5 0.05476,-0.0547 0.05969,-0.0597 0.0029,0.0121 0.0056,0.0242 0.0086,0.0363 l -0.04447,0.0445 c 0.01917,0.005 0.03854,0.008 0.05774,0.0133 0.0052,0.0204 0.0086,0.0409 0.01404,0.0613 6.7e-5,-8e-5 0.04374,-0.0437 0.04681,-0.0468 0.0056,0.001 0.01119,0.003 0.01677,0.004 0.0016,0.007 0.0031,0.013 0.0047,0.0195 -0.0027,0.003 -0.04447,0.0445 -0.04447,0.0445 0.01915,0.005 0.03856,0.008 0.05774,0.0133 0.0052,0.0204 0.0086,0.0409 0.01404,0.0613 7e-5,-8e-5 0.04374,-0.0437 0.04681,-0.0468 0.0056,0.001 0.01119,0.003 0.01677,0.004 0.0016,0.007 0.0031,0.013 0.0047,0.0195 -0.0027,0.003 -0.04447,0.0445 -0.04447,0.0445 0.01918,0.005 0.03854,0.009 0.05774,0.0137 0.0052,0.0204 0.009,0.0409 0.01443,0.0613 7.4e-5,-8e-5 0.04408,-0.0441 0.0472,-0.0472 0.0053,0.001 0.01066,0.003 0.016,0.004 0.0017,0.007 0.003,0.0135 0.0047,0.0203 l -0.04408,0.0441 c 0.01905,0.005 0.03828,0.008 0.05735,0.0133 0.0052,0.0204 0.009,0.0409 0.01443,0.0612 7.3e-5,-7e-5 0.04374,-0.0437 0.04681,-0.0468 0.0056,0.001 0.01119,0.003 0.01677,0.004 0.0016,0.007 0.0031,0.013 0.0047,0.0195 -0.0027,0.003 -0.04447,0.0445 -0.04447,0.0445 0.01917,0.005 0.03854,0.008 0.05774,0.0133 0.0052,0.0203 0.0086,0.0409 0.01404,0.0612 l 0.04681,-0.0468 c 0.0056,0.001 0.01119,0.003 0.01677,0.004 0.0016,0.007 0.0031,0.013 0.0047,0.0195 -0.0027,0.003 -0.04447,0.0445 -0.04447,0.0445 0.01915,0.005 0.03856,0.008 0.05774,0.0133 0.0052,0.0203 0.0086,0.0409 0.01404,0.0613 l 0.04681,-0.0468 c 0.0056,10e-4 0.01119,0.003 0.01677,0.004 0.0016,0.007 0.003,0.0133 0.0047,0.0199 l -0.04447,0.0445 c 0.01931,0.005 0.0388,0.009 0.05813,0.0137 0.0052,0.0202 0.0086,0.0407 0.01404,0.0609 7.8e-5,-8e-5 0.04373,-0.0437 0.04681,-0.0468 0.0056,10e-4 0.01119,0.003 0.01677,0.004 0.0016,0.007 0.0031,0.013 0.0047,0.0195 l -0.04447,0.0445 c 0.01917,0.005 0.03854,0.008 0.05774,0.0133 0.0052,0.0204 0.0086,0.0409 0.01404,0.0613 7.8e-5,-8e-5 0.04373,-0.0437 0.04681,-0.0468 0.0056,0.001 0.01119,0.003 0.01677,0.004 0.0016,0.007 0.0031,0.013 0.0047,0.0195 l -0.04447,0.0445 c 0.01917,0.005 0.03854,0.008 0.05774,0.0133 0.0052,0.0204 0.0086,0.0409 0.01404,0.0612 8.1e-5,-7e-5 0.04373,-0.0437 0.04681,-0.0468 0.0054,0.001 0.01095,0.002 0.01638,0.004 0.0017,0.007 0.003,0.0135 0.0047,0.0203 -0.0027,0.003 -0.04408,0.0441 -0.04408,0.0441 0.01903,0.005 0.0383,0.008 0.05735,0.0133 0.0053,0.0205 0.0089,0.0412 0.01444,0.0616 8.4e-5,-8e-5 0.04407,-0.0441 0.0472,-0.0472 0.0055,0.001 0.01093,0.003 0.01638,0.004 0.0017,0.007 0.003,0.0135 0.0047,0.0203 -0.0027,0.003 -0.04407,0.0441 -0.04408,0.0441 0.01905,0.005 0.03828,0.008 0.05735,0.0133 0.0052,0.0204 0.009,0.0409 0.01444,0.0613 8.3e-5,-8e-5 0.04373,-0.0437 0.04681,-0.0468 0.0056,0.001 0.01119,0.003 0.01677,0.004 0.0016,0.007 0.0031,0.013 0.0047,0.0195 -0.0027,0.003 -0.04447,0.0445 -0.04447,0.0445 0.01917,0.005 0.03854,0.008 0.05774,0.0133 0.0052,0.0204 0.0086,0.0409 0.01404,0.0613 8.6e-5,-8e-5 0.04373,-0.0437 0.04681,-0.0468 0.0056,0.001 0.01119,0.003 0.01677,0.004 0.0016,0.007 0.0031,0.013 0.0047,0.0195 -0.0027,0.003 -0.04447,0.0445 -0.04447,0.0445 0.01915,0.005 0.03856,0.008 0.05774,0.0133 0.0052,0.0204 0.0086,0.0409 0.01404,0.0613 8.6e-5,-8e-5 0.04373,-0.0437 0.04681,-0.0468 0.0054,10e-4 0.01095,0.002 0.01638,0.004 0.0017,0.007 0.003,0.0135 0.0047,0.0203 -0.0027,0.003 -0.04408,0.0441 -0.04408,0.0441 0.01903,0.005 0.0383,0.008 0.05735,0.0133 0.0053,0.0205 0.0089,0.0412 0.01444,0.0616 h 3.99e-4 c 8.9e-5,-7e-5 0.04407,-0.0441 0.0472,-0.0472 0.0053,0.001 0.01066,0.003 0.016,0.004 0.0017,0.007 0.003,0.0135 0.0047,0.0203 -0.0027,0.003 -0.04408,0.0441 -0.04408,0.0441 0.01905,0.005 0.03828,0.008 0.05735,0.0133 0.0052,0.0204 0.009,0.0409 0.01444,0.0612 8.8e-5,-10e-5 0.04372,-0.0437 0.04681,-0.0468 0.0056,10e-4 0.01119,0.003 0.01677,0.004 0.0016,0.007 0.0031,0.013 0.0047,0.0195 -0.0027,0.003 -0.04447,0.0445 -0.04447,0.0445 0.01917,0.005 0.03854,0.008 0.05774,0.0133 0.0052,0.0204 0.0086,0.0409 0.01404,0.0613 9e-5,-1.1e-4 0.04372,-0.0437 0.04681,-0.0468 0.0056,0.001 0.01119,0.003 0.01677,0.004 0.0016,0.007 0.0031,0.013 0.0047,0.0195 l -0.04447,0.0445 c 0.01915,0.005 0.03856,0.008 0.05774,0.0133 0.0052,0.0203 0.0086,0.0409 0.01404,0.0612 9.3e-5,-1e-4 0.04372,-0.0437 0.04681,-0.0468 0.0056,0.001 0.01119,0.003 0.01677,0.004 0.0016,0.007 0.003,0.0133 0.0047,0.0199 -0.0027,0.003 -0.04447,0.0445 -0.04447,0.0445 0.01931,0.005 0.0388,0.009 0.05813,0.0137 0.0052,0.0202 0.0086,0.0407 0.01404,0.0609 9.2e-5,-10e-5 0.04372,-0.0437 0.04681,-0.0468 0.0056,10e-4 0.01119,0.003 0.01677,0.004 0.0016,0.007 0.0031,0.013 0.0047,0.0195 l -0.04447,0.0445 c 0.01917,0.005 0.03854,0.008 0.05774,0.0133 0.0052,0.0204 0.0086,0.0409 0.01404,0.0613 9.5e-5,-1e-4 0.04372,-0.0437 0.04681,-0.0468 0.0056,0.001 0.01119,0.003 0.01677,0.004 0.0016,0.007 0.0031,0.013 0.0047,0.0195 -0.0027,0.003 -0.04447,0.0445 -0.04447,0.0445 0.01917,0.005 0.03854,0.008 0.05774,0.0133 0.0052,0.0204 0.0086,0.0409 0.01404,0.0613 9.5e-5,-1e-4 0.04372,-0.0437 0.04681,-0.0468 0.0054,0.001 0.01095,0.002 0.01638,0.004 0.0017,0.007 0.003,0.0135 0.0047,0.0203 -0.0027,0.003 -0.04408,0.0441 -0.04408,0.0441 0.01903,0.005 0.0383,0.008 0.05735,0.0133 0.0053,0.0205 0.0089,0.0412 0.01444,0.0616 9.9e-5,-10e-5 0.04406,-0.0441 0.0472,-0.0472 0.0055,10e-4 0.01093,0.003 0.01639,0.004 0.0017,0.007 0.003,0.0135 0.0047,0.0203 -0.0027,0.003 -0.04407,0.0441 -0.04408,0.0441 0.01905,0.005 0.03828,0.008 0.05735,0.0133 0.0052,0.0204 0.009,0.0409 0.01444,0.0613 9.8e-5,-1e-4 0.04372,-0.0437 0.04681,-0.0468 0.0056,0.001 0.01119,0.003 0.01677,0.004 0.0016,0.007 0.0031,0.013 0.0047,0.0195 -0.0027,0.003 -0.04447,0.0445 -0.04447,0.0445 0.01917,0.005 0.03854,0.008 0.05774,0.0133 0.0052,0.0204 0.0086,0.0409 0.01404,0.0613 l 0.04681,-0.0468 c 0.0056,0.001 0.01119,0.003 0.01677,0.004 0.0016,0.007 0.0031,0.013 0.0047,0.0195 -0.0027,0.003 -0.04447,0.0445 -0.04447,0.0445 0.01915,0.005 0.03856,0.008 0.05774,0.0133 0.0052,0.0204 0.0086,0.0409 0.01404,0.0613 1.03e-4,-1.1e-4 0.04371,-0.0437 0.04681,-0.0468 0.0054,0.001 0.01095,0.002 0.01638,0.004 0.0017,0.007 0.003,0.0135 0.0047,0.0203 -0.0027,0.003 -0.04408,0.0441 -0.04408,0.0441 0.01903,0.005 0.0383,0.008 0.05735,0.0133 0.0053,0.0205 0.0089,0.0412 0.01444,0.0616 h 3.99e-4 c 1.04e-4,-1e-4 0.04405,-0.0441 0.0472,-0.0472 0.0053,10e-4 0.01066,0.003 0.01599,0.004 0.0017,0.007 0.003,0.0135 0.0047,0.0203 -0.0027,0.003 -0.04408,0.0441 -0.04408,0.0441 0.01905,0.005 0.03828,0.008 0.05735,0.0133 0.0052,0.0204 0.009,0.0409 0.01443,0.0613 1.06e-4,-1e-4 0.04371,-0.0437 0.04681,-0.0468 0.0056,0.001 0.01119,0.003 0.01677,0.004 0.0016,0.007 0.0031,0.013 0.0047,0.0195 -0.0027,0.003 -0.04447,0.0445 -0.04447,0.0445 0.01917,0.005 0.03854,0.008 0.05774,0.0133 0.0052,0.0204 0.0086,0.0409 0.01404,0.0613 1.06e-4,-1.1e-4 0.04371,-0.0437 0.04681,-0.0468 0.0056,0.001 0.01119,0.003 0.01677,0.004 0.0016,0.007 0.0031,0.013 0.0047,0.0195 -0.0027,0.003 -0.04447,0.0445 -0.04447,0.0445 0.01915,0.005 0.03856,0.008 0.05774,0.0133 0.0052,0.0204 0.0086,0.0409 0.01404,0.0612 1.09e-4,-10e-5 0.04371,-0.0437 0.04681,-0.0468 0.0056,10e-4 0.01119,0.003 0.01677,0.004 0.0016,0.007 0.003,0.0133 0.0047,0.0199 l -0.04447,0.0445 c 0.01931,0.005 0.0388,0.009 0.05813,0.0137 0.0052,0.0202 0.0086,0.0407 0.01404,0.0609 1.08e-4,-1e-4 0.04371,-0.0437 0.04681,-0.0468 0.0055,0.001 0.01093,0.003 0.01638,0.004 0.0016,0.007 0.003,0.0133 0.0047,0.0199 -0.0027,0.003 -0.04408,0.0441 -0.04408,0.0441 0.01905,0.005 0.03828,0.008 0.05735,0.0133 0.0052,0.0204 0.009,0.0409 0.01443,0.0613 1.11e-4,-1e-4 0.04371,-0.0437 0.04681,-0.0468 0.0056,0.001 0.01119,0.003 0.01677,0.004 0.0016,0.007 0.0031,0.013 0.0047,0.0195 l -0.04447,0.0445 c 0.01917,0.005 0.03854,0.008 0.05774,0.0133 0.0052,0.0204 0.0086,0.0409 0.01404,0.0613 1.13e-4,-1e-4 0.0437,-0.0437 0.04681,-0.0468 0.0056,0.001 0.01119,0.003 0.01677,0.004 0.0016,0.007 0.0031,0.013 0.0047,0.0195 -0.0027,0.003 -0.04447,0.0445 -0.04447,0.0445 0.01915,0.005 0.03856,0.008 0.05774,0.0133 0.0052,0.0204 0.0086,0.0409 0.01404,0.0613 1.13e-4,-1.3e-4 0.0437,-0.0437 0.04681,-0.0468 0.0056,10e-4 0.01119,0.003 0.01677,0.004 0.0016,0.007 0.003,0.0133 0.0047,0.0199 l -0.04447,0.0445 c 0.01931,0.005 0.0388,0.009 0.05813,0.0137 0.0052,0.0202 0.0086,0.0407 0.01404,0.0609 1.15e-4,-1.2e-4 0.0437,-0.0437 0.04681,-0.0468 0.0056,0.001 0.01119,0.003 0.01677,0.004 0.0016,0.007 0.0031,0.013 0.0047,0.0195 -0.0027,0.003 -0.04447,0.0445 -0.04447,0.0445 0.01917,0.005 0.03854,0.008 0.05774,0.0133 0.0052,0.0203 0.0086,0.0409 0.01404,0.0612 1.16e-4,-1.2e-4 0.0437,-0.0437 0.04681,-0.0468 0.0056,0.001 0.01119,0.003 0.01677,0.004 0.0016,0.007 0.0031,0.013 0.0047,0.0195 l -0.04447,0.0445 c 0.01915,0.005 0.03856,0.008 0.05774,0.0133 0.0052,0.0204 0.0086,0.0409 0.01404,0.0612 1.18e-4,-1.2e-4 0.0437,-0.0437 0.04681,-0.0468 0.0054,10e-4 0.01095,0.002 0.01638,0.004 0.0017,0.007 0.003,0.0136 0.0047,0.0203 l -0.04408,0.0441 c 0.01903,0.005 0.0383,0.008 0.05735,0.0133 0.0053,0.0205 0.0089,0.0412 0.01443,0.0616 h 3.99e-4 c 1.19e-4,-1.2e-4 0.04404,-0.044 0.0472,-0.0472 0.0053,0.001 0.01066,0.003 0.01599,0.004 0.0017,0.007 0.003,0.0135 0.0047,0.0203 -0.0027,0.003 -0.04408,0.0441 -0.04408,0.0441 0.01905,0.005 0.03827,0.008 0.05735,0.0133 0.0052,0.0204 0.009,0.0409 0.01444,0.0612 1.21e-4,-1.2e-4 0.0437,-0.0437 0.04681,-0.0468 0.0056,10e-4 0.01119,0.003 0.01677,0.004 0.0016,0.007 0.0031,0.013 0.0047,0.0195 -0.0027,0.003 -0.04447,0.0445 -0.04447,0.0445 0.01917,0.005 0.03854,0.008 0.05774,0.0133 0.0052,0.0203 0.0086,0.0409 0.01404,0.0612 1.24e-4,-1.2e-4 0.04369,-0.0437 0.04681,-0.0468 0.0056,0.001 0.01119,0.003 0.01677,0.004 0.0016,0.007 0.0031,0.013 0.0047,0.0195 l -0.04447,0.0445 c 0.01915,0.005 0.03856,0.008 0.05774,0.0133 0.0052,0.0204 0.0086,0.0409 0.01404,0.0613 1.23e-4,-1.2e-4 0.04369,-0.0437 0.04681,-0.0468 0.0054,0.001 0.01095,0.002 0.01638,0.004 0.0017,0.007 0.003,0.0136 0.0047,0.0203 -0.0027,0.003 -0.04408,0.0441 -0.04408,0.0441 v 4e-4 c 0.01903,0.005 0.03829,0.008 0.05735,0.0133 0.0052,0.0204 0.009,0.0409 0.01444,0.0612 h 3.99e-4 l 0.04681,-0.0468 c 0.0055,0.001 0.01092,0.003 0.01638,0.004 0.0016,0.007 0.003,0.0133 0.0047,0.0199 -0.0027,0.003 -0.04408,0.0441 -0.04408,0.0441 0.01905,0.005 0.03828,0.008 0.05735,0.0133 0.0052,0.0204 0.009,0.0409 0.01444,0.0613 l 0.04681,-0.0468 c 0.0056,0.001 0.01119,0.003 0.01677,0.004 0.0016,0.007 0.0031,0.013 0.0047,0.0195 -0.0027,0.003 -0.04447,0.0445 -0.04447,0.0445 0.01917,0.005 0.03854,0.008 0.05774,0.0133 0.0052,0.0203 0.0086,0.0409 0.01404,0.0613 1.28e-4,-1.3e-4 0.04369,-0.0437 0.04681,-0.0468 0.0056,0.001 0.01119,0.003 0.01677,0.004 0.0016,0.007 0.0031,0.013 0.0047,0.0195 -0.0027,0.003 -0.04447,0.0445 -0.04447,0.0445 0.01915,0.005 0.03856,0.008 0.05774,0.0133 0.0052,0.0204 0.0086,0.0409 0.01404,0.0612 1.3e-4,-1.2e-4 0.04369,-0.0437 0.04681,-0.0468 0.0056,0.001 0.01119,0.003 0.01677,0.004 0.0016,0.007 0.003,0.0133 0.0047,0.0199 -0.0027,0.003 -0.04447,0.0445 -0.04447,0.0445 0.01931,0.005 0.0388,0.009 0.05813,0.0137 0.0052,0.0202 0.0086,0.0407 0.01404,0.0609 1.31e-4,-1.2e-4 0.04369,-0.0437 0.04681,-0.0468 0.0056,0.001 0.01119,0.003 0.01677,0.004 0.0016,0.007 0.0031,0.013 0.0047,0.0195 -0.0027,0.003 -0.04447,0.0445 -0.04447,0.0445 0.01917,0.005 0.03854,0.008 0.05774,0.0133 0.0052,0.0203 0.0086,0.0409 0.01404,0.0613 1.33e-4,-1.3e-4 0.04368,-0.0437 0.04681,-0.0468 0.0056,0.001 0.01119,0.003 0.01677,0.004 0.0016,0.007 0.0031,0.013 0.0047,0.0195 -0.0027,0.003 -0.04447,0.0445 -0.04447,0.0445 0.01915,0.005 0.03856,0.008 0.05774,0.0133 0.0052,0.0203 0.0086,0.0409 0.01404,0.0613 1.34e-4,-1.3e-4 0.04369,-0.0437 0.04681,-0.0468 0.0056,10e-4 0.01119,0.003 0.01677,0.004 0.0016,0.007 0.0031,0.013 0.0047,0.0195 -0.0027,0.003 -0.04447,0.0445 -0.04447,0.0445 0.01915,0.005 0.03856,0.008 0.05774,0.0133 0.0052,0.0203 0.0086,0.0409 0.01404,0.0613 1.36e-4,-1.3e-4 0.04368,-0.0437 0.04681,-0.0468 0.0056,0.001 0.01119,0.003 0.01677,0.004 0.0017,0.007 0.003,0.0135 0.0047,0.0203 -0.0027,0.003 -0.04407,0.0441 -0.04408,0.0441 0.01905,0.005 0.03828,0.008 0.05735,0.0133 0.0052,0.0204 0.009,0.0409 0.01443,0.0613 1.36e-4,-1.3e-4 0.04368,-0.0437 0.04681,-0.0468 0.0056,0.001 0.01119,0.003 0.01677,0.004 0.0016,0.007 0.0031,0.013 0.0047,0.0195 -0.0027,0.003 -0.04447,0.0445 -0.04447,0.0445 0.01917,0.005 0.03854,0.008 0.05774,0.0133 0.0052,0.0204 0.0086,0.0409 0.01404,0.0613 1.38e-4,-1.3e-4 0.04368,-0.0437 0.04681,-0.0468 0.0056,0.001 0.01119,0.003 0.01677,0.004 0.0016,0.007 0.0031,0.013 0.0047,0.0195 -0.0027,0.003 -0.04447,0.0445 -0.04447,0.0445 0.01915,0.005 0.03856,0.008 0.05774,0.0133 0.0052,0.0204 0.0086,0.0409 0.01404,0.0612 1.39e-4,-1.5e-4 0.04368,-0.0437 0.04681,-0.0468 0.0054,10e-4 0.01095,0.002 0.01638,0.004 0.0017,0.007 0.003,0.0135 0.0047,0.0203 -0.0027,0.003 -0.04408,0.0441 -0.04408,0.0441 0.01903,0.005 0.0383,0.008 0.05735,0.0133 0.0053,0.0205 0.0089,0.0412 0.01443,0.0616 h 4e-4 c 1.42e-4,-1.5e-4 0.04402,-0.044 0.0472,-0.0472 0.0053,0.001 0.01066,0.003 0.016,0.004 0.0017,0.007 0.003,0.0135 0.0047,0.0203 -0.0027,0.003 -0.04408,0.0441 -0.04408,0.0441 0.01905,0.005 0.03828,0.008 0.05735,0.0133 0.0052,0.0204 0.009,0.0409 0.01443,0.0612 1.43e-4,-1.5e-4 0.04368,-0.0437 0.04681,-0.0468 0.0056,10e-4 0.01119,0.003 0.01677,0.004 0.0016,0.007 0.0031,0.013 0.0047,0.0195 l -0.04447,0.0445 c 0.01917,0.005 0.03854,0.008 0.05774,0.0133 0.0052,0.0204 0.0086,0.0409 0.01404,0.0613 1.43e-4,-1.5e-4 0.04368,-0.0437 0.04681,-0.0468 0.0056,0.001 0.01119,0.003 0.01677,0.004 0.0016,0.007 0.0031,0.013 0.0047,0.0195 l -0.04447,0.0445 c 0.01915,0.005 0.03856,0.008 0.05774,0.0133 0.0052,0.0203 0.0086,0.0409 0.01404,0.0613 1.45e-4,-1.5e-4 0.04367,-0.0437 0.04681,-0.0468 0.0056,0.001 0.01119,0.003 0.01677,0.004 0.0016,0.007 0.003,0.0133 0.0047,0.0199 l -0.04447,0.0445 c 0.01931,0.005 0.0388,0.009 0.05813,0.0137 0.0052,0.0202 0.0086,0.0407 0.01404,0.0609 1.46e-4,-1.6e-4 0.04367,-0.0437 0.04681,-0.0468 0.0056,0.001 0.01119,0.003 0.01677,0.004 0.0016,0.007 0.0031,0.013 0.0047,0.0195 -0.0027,0.003 -0.04447,0.0445 -0.04447,0.0445 0.01917,0.005 0.03854,0.008 0.05774,0.0133 0.0052,0.0203 0.0086,0.0409 0.01404,0.0613 1.48e-4,-1.6e-4 0.04367,-0.0437 0.04681,-0.0468 0.0056,10e-4 0.01119,0.003 0.01677,0.004 0.0016,0.007 0.0031,0.013 0.0047,0.0195 l -0.04447,0.0445 c 0.01915,0.005 0.03856,0.008 0.05774,0.0133 0.0052,0.0203 0.0086,0.0409 0.01404,0.0613 l 0.04681,-0.0468 c 0.0056,0.001 0.01119,0.003 0.01677,0.004 0.0016,0.007 0.0031,0.013 0.0047,0.0195 -0.0027,0.003 -0.04447,0.0445 -0.04447,0.0445 0.01915,0.005 0.03856,0.008 0.05774,0.0133 0.0052,0.0203 0.0086,0.0409 0.01404,0.0612 l 0.04681,-0.0468 c 0.0056,0.001 0.01119,0.003 0.01677,0.004 0.0017,0.007 0.003,0.0135 0.0047,0.0203 -0.0027,0.003 -0.04407,0.0441 -0.04408,0.0441 0.01905,0.005 0.03828,0.008 0.05735,0.0133 0.0052,0.0204 0.009,0.0409 0.01444,0.0613 1.53e-4,-1.5e-4 0.04367,-0.0437 0.04681,-0.0468 0.0056,10e-4 0.01119,0.003 0.01677,0.004 0.0016,0.007 0.0031,0.013 0.0047,0.0195 -0.0027,0.003 -0.04447,0.0445 -0.04447,0.0445 0.01917,0.005 0.03854,0.008 0.05774,0.0133 0.0052,0.0204 0.0086,0.0409 0.01404,0.0613 1.53e-4,-1.5e-4 0.04367,-0.0437 0.04681,-0.0468 0.0056,0.001 0.01119,0.003 0.01677,0.004 0.0016,0.007 0.0031,0.013 0.0047,0.0195 -0.0027,0.003 -0.04447,0.0445 -0.04447,0.0445 0.01916,0.005 0.03856,0.008 0.05774,0.0133 0.0052,0.0204 0.0086,0.0409 0.01404,0.0613 1.56e-4,-1.5e-4 0.04367,-0.0437 0.04681,-0.0468 0.0054,0.001 0.01095,0.002 0.01638,0.004 0.0017,0.007 0.003,0.0135 0.0047,0.0203 -0.0027,0.003 -0.04408,0.0441 -0.04408,0.0441 0.0045,0.001 0.0091,0.002 0.01365,0.003 h 31.726072 c 1.770461,0 3.195785,-1.42532 3.195785,-3.19578 V 90.078092 c -9.99e-4,-0.0045 -0.002,-0.0091 -0.0031,-0.01365 -8.4e-5,7.2e-5 -0.04167,0.04168 -0.04447,0.04447 -0.0065,-0.0016 -0.013,-0.0031 -0.01951,-0.0047 -0.0014,-0.0056 -0.0025,-0.01119 -0.0039,-0.01677 0.003,-0.003 0.04681,-0.04681 0.04681,-0.04681 -0.02032,-0.0054 -0.0409,-0.0088 -0.06125,-0.01404 -0.005,-0.01919 -0.0081,-0.03856 -0.01326,-0.05774 -8.2e-5,7.2e-5 -0.04168,0.04169 -0.04447,0.04447 -0.0065,-0.0016 -0.013,-0.0031 -0.01949,-0.0047 -0.0014,-0.0056 -0.0025,-0.01119 -0.0039,-0.01677 0.003,-0.003 0.04681,-0.04681 0.04681,-0.04681 -0.02032,-0.0054 -0.0409,-0.0088 -0.06125,-0.01404 -0.005,-0.01919 -0.0081,-0.03856 -0.01326,-0.05774 -8e-5,7.2e-5 -0.04168,0.04168 -0.04447,0.04447 -0.0065,-0.0016 -0.013,-0.0031 -0.01951,-0.0047 -0.0014,-0.0056 -0.0025,-0.01119 -0.0039,-0.01677 0.003,-0.003 0.04681,-0.04681 0.04681,-0.04681 -0.02035,-0.0055 -0.04088,-0.0092 -0.06125,-0.01444 -0.0049,-0.01905 -0.0082,-0.03831 -0.01326,-0.05735 -7.8e-5,7.1e-5 -0.04134,0.04134 -0.04408,0.04408 -0.0068,-0.0017 -0.01354,-0.003 -0.02029,-0.0047 -0.0014,-0.0056 -0.0025,-0.0112 -0.0039,-0.01677 l 0.04681,-0.04681 c -0.02034,-0.0055 -0.04088,-0.0088 -0.06125,-0.01404 -0.005,-0.01917 -0.0081,-0.03859 -0.01326,-0.05774 -7.9e-5,7.2e-5 -0.04168,0.04168 -0.04447,0.04447 -0.0065,-0.0016 -0.013,-0.0031 -0.01949,-0.0047 -0.0014,-0.0056 -0.0025,-0.01119 -0.0039,-0.01677 l 0.04681,-0.04681 c -0.02032,-0.0054 -0.0409,-0.0088 -0.06125,-0.01404 -0.005,-0.01919 -0.0081,-0.03856 -0.01326,-0.05774 -7.6e-5,7.2e-5 -0.04168,0.04169 -0.04447,0.04447 -0.0065,-0.0016 -0.013,-0.0031 -0.01951,-0.0047 -0.0014,-0.0056 -0.0025,-0.01119 -0.0039,-0.01677 0.003,-0.003 0.04681,-0.04681 0.04681,-0.04681 -0.02035,-0.0055 -0.04088,-0.0092 -0.06125,-0.01444 -0.0049,-0.01907 -0.0082,-0.0383 -0.01326,-0.05735 -7.4e-5,7.1e-5 -0.04134,0.04134 -0.04408,0.04408 -0.0066,-0.0016 -0.01326,-0.0031 -0.01989,-0.0047 -0.0014,-0.0055 -0.0026,-0.01093 -0.0039,-0.01638 0.003,-0.003 0.04681,-0.04681 0.04681,-0.04681 v -4e-4 c -0.02035,-0.0055 -0.04087,-0.0092 -0.06125,-0.01444 -0.0049,-0.01905 -0.0082,-0.03831 -0.01326,-0.05735 h -4e-4 c -7.4e-5,7.1e-5 -0.04134,0.04134 -0.04408,0.04408 -0.0068,-0.0017 -0.01354,-0.003 -0.02029,-0.0047 -0.0014,-0.0054 -0.0022,-0.01096 -0.0035,-0.01638 0.003,-0.003 0.04681,-0.04681 0.04681,-0.04681 -0.02032,-0.0054 -0.0409,-0.0088 -0.06125,-0.01404 -0.005,-0.01918 -0.0081,-0.03858 -0.01326,-0.05774 l -0.04447,0.04447 c -0.0065,-0.0016 -0.013,-0.0031 -0.01951,-0.0047 -0.0014,-0.0056 -0.0025,-0.01119 -0.0039,-0.01677 0.003,-0.003 0.04681,-0.04681 0.04681,-0.04681 -0.02032,-0.0054 -0.0409,-0.0088 -0.06125,-0.01404 -0.005,-0.01919 -0.0081,-0.03856 -0.01326,-0.05774 l -0.04447,0.04447 c -0.0065,-0.0016 -0.013,-0.0031 -0.01949,-0.0047 -0.0014,-0.0056 -0.0025,-0.01119 -0.0039,-0.01677 0.003,-0.003 0.04681,-0.04681 0.04681,-0.04681 -0.02035,-0.0055 -0.04087,-0.0092 -0.06125,-0.01443 -0.0049,-0.01907 -0.0082,-0.0383 -0.01326,-0.05735 -6.7e-5,7.2e-5 -0.04134,0.04134 -0.04408,0.04408 -0.0068,-0.0017 -0.01354,-0.003 -0.02029,-0.0047 -0.0014,-0.0056 -0.0025,-0.0112 -0.0039,-0.01677 0.003,-0.003 0.0468,-0.0468 0.04681,-0.04681 -0.02034,-0.0055 -0.04088,-0.0088 -0.06125,-0.01404 -0.005,-0.01917 -0.0081,-0.03858 -0.01326,-0.05774 -6.8e-5,7.2e-5 -0.04169,0.04168 -0.04447,0.04447 -0.0065,-0.0016 -0.013,-0.0031 -0.01951,-0.0047 -0.0014,-0.0056 -0.0025,-0.01119 -0.0039,-0.01677 0.003,-0.003 0.04681,-0.04681 0.04681,-0.04681 -0.02032,-0.0054 -0.0409,-0.0088 -0.06125,-0.01404 -0.005,-0.01918 -0.0081,-0.03858 -0.01326,-0.05774 -6.8e-5,7.2e-5 -0.04169,0.04169 -0.04447,0.04447 -0.0065,-0.0016 -0.013,-0.0031 -0.01949,-0.0047 -0.0014,-0.0056 -0.0025,-0.01119 -0.0039,-0.01677 l 0.04681,-0.04681 c -0.02032,-0.0054 -0.0409,-0.0088 -0.06125,-0.01404 -0.005,-0.01919 -0.0081,-0.03856 -0.01326,-0.05774 -6.4e-5,7.2e-5 -0.04169,0.04168 -0.04447,0.04447 -0.0065,-0.0016 -0.013,-0.0031 -0.01951,-0.0047 -0.0014,-0.0056 -0.0025,-0.01119 -0.0039,-0.01677 l 0.04681,-0.04681 c -0.02035,-0.0055 -0.04087,-0.0092 -0.06125,-0.01443 -0.0049,-0.01905 -0.0082,-0.03831 -0.01326,-0.05735 -6.4e-5,7.1e-5 -0.04135,0.04134 -0.04408,0.04408 -0.0068,-0.0017 -0.01354,-0.003 -0.02029,-0.0047 -0.0014,-0.0056 -0.0025,-0.0112 -0.0039,-0.01677 0.003,-0.003 0.0468,-0.0468 0.04682,-0.04681 -0.02034,-0.0055 -0.04088,-0.0088 -0.06125,-0.01404 -0.005,-0.01917 -0.0081,-0.03858 -0.01326,-0.05774 -6.2e-5,7.2e-5 -0.04169,0.04168 -0.04447,0.04447 -0.0065,-0.0016 -0.013,-0.0031 -0.01949,-0.0047 -0.0014,-0.0056 -0.0025,-0.01119 -0.0039,-0.01677 l 0.04682,-0.04681 c -0.02033,-0.0054 -0.0409,-0.0088 -0.06125,-0.01404 -0.005,-0.0192 -0.0081,-0.03856 -0.01326,-0.05774 -6.2e-5,7.2e-5 -0.04169,0.04169 -0.04447,0.04447 -0.0065,-0.0016 -0.013,-0.0031 -0.01951,-0.0047 -0.0014,-0.0056 -0.0025,-0.01119 -0.0039,-0.01677 l 0.04681,-0.04681 c -0.02032,-0.0054 -0.0409,-0.0088 -0.06125,-0.01404 -0.005,-0.01919 -0.0081,-0.03856 -0.01326,-0.05774 -6e-5,7.2e-5 -0.0417,0.04168 -0.04447,0.04447 -0.0065,-0.0016 -0.013,-0.0031 -0.01951,-0.0047 -0.0014,-0.0056 -0.0025,-0.01119 -0.0039,-0.01677 l 0.04681,-0.04681 c -0.0202,-0.0054 -0.04064,-0.0088 -0.06086,-0.01404 -0.005,-0.01933 -0.0085,-0.03882 -0.01366,-0.05813 -6e-5,4.8e-5 -0.04169,0.04171 -0.04447,0.04447 -0.0066,-0.0016 -0.01326,-0.0031 -0.01989,-0.0047 -0.0014,-0.0056 -0.0025,-0.0112 -0.0039,-0.01677 0.003,-0.003 0.0468,-0.0468 0.04681,-0.04681 -0.02034,-0.0054 -0.04088,-0.0088 -0.06125,-0.01404 -0.005,-0.01917 -0.0081,-0.03858 -0.01326,-0.05774 -5.6e-5,4.8e-5 -0.0417,0.04171 -0.04447,0.04447 -0.0065,-0.0016 -0.013,-0.0031 -0.01951,-0.0047 -0.0014,-0.0056 -0.0025,-0.01119 -0.0039,-0.01677 l 0.04681,-0.04681 c -0.02032,-0.0054 -0.0409,-0.0088 -0.06125,-0.01404 -0.005,-0.0192 -0.0081,-0.03856 -0.01326,-0.05774 -5.6e-5,4.7e-5 -0.0417,0.04171 -0.04447,0.04447 -0.0065,-0.0016 -0.013,-0.0031 -0.01951,-0.0047 -0.0014,-0.0056 -0.0025,-0.01119 -0.0039,-0.01677 l 0.04682,-0.04681 c -0.02035,-0.0055 -0.04087,-0.0092 -0.06125,-0.01443 -0.0049,-0.01907 -0.0082,-0.0383 -0.01326,-0.05735 -5.4e-5,4.7e-5 -0.04136,0.04136 -0.04408,0.04408 -0.0068,-0.0017 -0.01354,-0.003 -0.02029,-0.0047 -0.0014,-0.0055 -0.0026,-0.01093 -0.0039,-0.01638 l 0.0472,-0.0472 c -0.02048,-0.0055 -0.04114,-0.0092 -0.06164,-0.01443 -0.0049,-0.01905 -0.0082,-0.03832 -0.01326,-0.05735 -5.1e-5,4.8e-5 -0.04136,0.04136 -0.04408,0.04408 -0.0068,-0.0017 -0.01354,-0.003 -0.02029,-0.0047 -0.0014,-0.0054 -0.0022,-0.01095 -0.0035,-0.01638 l 0.04681,-0.04681 c -0.02032,-0.0054 -0.0409,-0.0088 -0.06125,-0.01404 -0.005,-0.01918 -0.0081,-0.03858 -0.01326,-0.05774 -5.4e-5,4.8e-5 -0.0417,0.0417 -0.04447,0.04447 -0.0065,-0.0016 -0.013,-0.0031 -0.01951,-0.0047 -0.0014,-0.0056 -0.0025,-0.01119 -0.0039,-0.01677 l 0.04681,-0.04681 c -0.02032,-0.0054 -0.0409,-0.0088 -0.06125,-0.01404 -0.005,-0.01919 -0.0081,-0.03856 -0.01326,-0.05774 -5e-5,4.7e-5 -0.0417,0.04171 -0.04447,0.04447 -0.0065,-0.0016 -0.013,-0.0031 -0.01951,-0.0047 -0.0014,-0.0056 -0.0025,-0.01119 -0.0039,-0.01677 l 0.04681,-0.04681 c -0.02035,-0.0055 -0.04087,-0.0092 -0.06125,-0.01443 -0.0049,-0.01907 -0.0081,-0.0383 -0.01326,-0.05735 -5e-5,4.7e-5 -0.04136,0.04136 -0.04408,0.04408 -0.0068,-0.0017 -0.01354,-0.003 -0.02029,-0.0047 -0.0014,-0.0056 -0.0025,-0.0112 -0.0039,-0.01677 0.003,-0.003 0.0468,-0.0468 0.04681,-0.04681 -0.02034,-0.0054 -0.04088,-0.0088 -0.06125,-0.01404 -0.005,-0.01917 -0.0081,-0.03858 -0.01326,-0.05774 l -0.04447,0.04447 c -0.0065,-0.0016 -0.013,-0.0031 -0.01951,-0.0047 -0.0014,-0.0056 -0.0025,-0.01119 -0.0039,-0.01677 0.003,-0.003 0.04681,-0.04681 0.04681,-0.04681 -0.02032,-0.0054 -0.0409,-0.0088 -0.06125,-0.01404 -0.005,-0.01919 -0.0081,-0.03856 -0.01326,-0.05774 -4.6e-5,4.8e-5 -0.04171,0.04171 -0.04447,0.04447 -0.0065,-0.0016 -0.013,-0.0031 -0.01951,-0.0047 -0.0014,-0.0056 -0.0025,-0.01119 -0.0039,-0.01677 l 0.04681,-0.04681 c -0.02032,-0.0054 -0.0409,-0.0088 -0.06125,-0.01404 -0.005,-0.01919 -0.0081,-0.03856 -0.01326,-0.05774 -4.5e-5,4.8e-5 -0.04171,0.0417 -0.04447,0.04447 -0.0065,-0.0016 -0.013,-0.0031 -0.01951,-0.0047 -0.0014,-0.0056 -0.0025,-0.01119 -0.0039,-0.01677 0.003,-0.003 0.04681,-0.04681 0.04681,-0.04681 -0.0202,-0.0054 -0.04064,-0.0088 -0.06086,-0.01404 -0.005,-0.01933 -0.0085,-0.03882 -0.01366,-0.05813 -4.4e-5,4.8e-5 -0.04171,0.04171 -0.04447,0.04447 -0.0066,-0.0016 -0.01326,-0.0031 -0.01989,-0.0047 -0.0014,-0.0056 -0.0025,-0.0112 -0.0039,-0.01677 0.003,-0.003 0.0468,-0.0468 0.04681,-0.04681 -0.02034,-0.0054 -0.04088,-0.0088 -0.06125,-0.01404 -0.005,-0.01917 -0.0081,-0.03858 -0.01326,-0.05774 -4.2e-5,4.7e-5 -0.04171,0.0417 -0.04447,0.04447 -0.0065,-0.0016 -0.013,-0.0031 -0.01951,-0.0047 -0.0014,-0.0056 -0.0025,-0.01119 -0.0039,-0.01677 0.003,-0.003 0.04681,-0.04681 0.04681,-0.04681 -0.02032,-0.0054 -0.0409,-0.0088 -0.06125,-0.01404 -0.005,-0.01919 -0.0081,-0.03856 -0.01326,-0.05774 -4.2e-5,4.8e-5 -0.04171,0.04171 -0.04447,0.04447 -0.0065,-0.0016 -0.013,-0.0031 -0.01951,-0.0047 -0.0014,-0.0056 -0.0025,-0.01119 -0.0039,-0.01677 l 0.04681,-0.04681 c -0.02035,-0.0055 -0.04087,-0.0092 -0.06125,-0.01443 -0.0049,-0.01907 -0.0081,-0.0383 -0.01326,-0.05735 -4e-5,4.7e-5 -0.04137,0.04136 -0.04408,0.04408 -0.0066,-0.0016 -0.01326,-0.0031 -0.01989,-0.0047 -0.0014,-0.0055 -0.0026,-0.01093 -0.0039,-0.01638 0.003,-0.003 0.04681,-0.04681 0.04681,-0.04681 v -4e-4 c -0.02035,-0.0055 -0.04087,-0.0092 -0.06125,-0.01443 -0.0049,-0.01905 -0.0082,-0.03831 -0.01326,-0.05735 h -3.99e-4 c -3.8e-5,4.7e-5 -0.04137,0.04136 -0.04408,0.04408 -0.0068,-0.0017 -0.01354,-0.003 -0.02029,-0.0047 -0.0014,-0.0054 -0.0022,-0.01096 -0.0035,-0.01638 0.003,-0.003 0.04681,-0.04681 0.04681,-0.04681 -0.02032,-0.0054 -0.0409,-0.0088 -0.06125,-0.01404 -0.005,-0.01918 -0.0081,-0.03858 -0.01326,-0.05774 -3.6e-5,4.8e-5 -0.04172,0.0417 -0.04447,0.04447 -0.0065,-0.0016 -0.013,-0.0031 -0.01952,-0.0047 -0.0014,-0.0056 -0.0025,-0.01119 -0.0039,-0.01677 l 0.04681,-0.04681 c -0.02032,-0.0054 -0.0409,-0.0088 -0.06125,-0.01404 -0.005,-0.01919 -0.0081,-0.03856 -0.01326,-0.05774 -3.6e-5,2.4e-5 -0.04172,0.04173 -0.04447,0.04447 -0.0065,-0.0016 -0.013,-0.0031 -0.01951,-0.0047 -0.0014,-0.0056 -0.0025,-0.01119 -0.0039,-0.01677 0.003,-0.003 0.04681,-0.04681 0.04681,-0.04681 -0.02035,-0.0055 -0.04087,-0.0092 -0.06125,-0.01444 -0.0049,-0.01907 -0.0082,-0.0383 -0.01326,-0.05735 -3.2e-5,2.4e-5 -0.04137,0.04138 -0.04408,0.04408 -0.0068,-0.0017 -0.01354,-0.003 -0.02029,-0.0047 -0.0014,-0.0055 -0.0026,-0.01093 -0.0039,-0.01638 0.0031,-0.0031 0.0472,-0.0472 0.0472,-0.0472 -0.02048,-0.0055 -0.04114,-0.0092 -0.06164,-0.01444 -0.0049,-0.01905 -0.0082,-0.03832 -0.01326,-0.05735 -3.4e-5,2.3e-5 -0.04138,0.04138 -0.04408,0.04408 -0.0068,-0.0017 -0.01354,-0.003 -0.02029,-0.0047 -0.0014,-0.0054 -0.0022,-0.01096 -0.0035,-0.01638 l 0.04682,-0.04681 c -0.02033,-0.0054 -0.0409,-0.0088 -0.06125,-0.01404 -0.005,-0.01918 -0.0081,-0.03858 -0.01326,-0.05774 -3.2e-5,2.4e-5 -0.04172,0.04173 -0.04447,0.04447 -0.0065,-0.0016 -0.013,-0.0031 -0.01952,-0.0047 -0.0014,-0.0056 -0.0025,-0.01119 -0.0039,-0.01677 l 0.04681,-0.04681 c -0.02032,-0.0054 -0.0409,-0.0088 -0.06125,-0.01404 -0.005,-0.01919 -0.0081,-0.03856 -0.01326,-0.05774 -3e-5,2.4e-5 -0.04172,0.04173 -0.04447,0.04447 -0.0065,-0.0016 -0.013,-0.0031 -0.01951,-0.0047 -0.0014,-0.0056 -0.0025,-0.01119 -0.0039,-0.01677 l 0.04681,-0.04681 c -0.0202,-0.0054 -0.04064,-0.0088 -0.06086,-0.01404 -0.005,-0.01933 -0.0085,-0.03882 -0.01366,-0.05813 -2.8e-5,2.3e-5 -0.04172,0.04173 -0.04447,0.04447 -0.0066,-0.0016 -0.01326,-0.0031 -0.01989,-0.0047 -0.0014,-0.0056 -0.0025,-0.0112 -0.0039,-0.01677 0.003,-0.003 0.0468,-0.0468 0.04681,-0.04681 -0.02034,-0.0054 -0.04088,-0.0088 -0.06125,-0.01404 -0.005,-0.01917 -0.0081,-0.03858 -0.01326,-0.05774 -2.6e-5,2.3e-5 -0.04172,0.04173 -0.04447,0.04447 -0.0065,-0.0016 -0.013,-0.0031 -0.01951,-0.0047 -0.0014,-0.0056 -0.0025,-0.01119 -0.0039,-0.01677 0.003,-0.003 0.04681,-0.04681 0.04681,-0.04681 -0.02032,-0.0054 -0.0409,-0.0088 -0.06125,-0.01404 -0.005,-0.01919 -0.0081,-0.03856 -0.01326,-0.05774 -2.6e-5,2.4e-5 -0.04172,0.04173 -0.04447,0.04447 -0.0065,-0.0016 -0.013,-0.0031 -0.01951,-0.0047 -0.0014,-0.0056 -0.0025,-0.01119 -0.0039,-0.01677 l 0.04682,-0.04681 c -0.02033,-0.0054 -0.0409,-0.0088 -0.06125,-0.01404 -0.005,-0.01919 -0.0081,-0.03856 -0.01326,-0.05774 l -0.04447,0.04447 c -0.0065,-0.0016 -0.013,-0.0031 -0.01951,-0.0047 -0.0014,-0.0056 -0.0025,-0.01119 -0.0039,-0.01677 l 0.04672,-0.04681 c -0.0202,-0.0054 -0.04064,-0.0088 -0.06086,-0.01404 -0.005,-0.01933 -0.0085,-0.03882 -0.01366,-0.05813 -2.2e-5,2.3e-5 -0.04173,0.04173 -0.04447,0.04447 -0.0066,-0.0016 -0.01326,-0.0031 -0.01989,-0.0047 -0.0014,-0.0056 -0.0025,-0.0112 -0.0039,-0.01677 0.003,-0.003 0.0468,-0.0468 0.04681,-0.04681 -0.02034,-0.0055 -0.04088,-0.0088 -0.06125,-0.01404 -0.005,-0.01917 -0.0081,-0.03859 -0.01326,-0.05774 l -0.04447,0.04447 c -0.0065,-0.0016 -0.013,-0.0031 -0.01951,-0.0047 -0.0014,-0.0056 -0.0025,-0.01119 -0.0039,-0.01677 l 0.04681,-0.04681 c -0.02032,-0.0054 -0.0409,-0.0088 -0.06125,-0.01404 -0.005,-0.01919 -0.0081,-0.03856 -0.01326,-0.05774 -2e-5,2.1e-5 -0.04173,0.04173 -0.04447,0.04447 -0.0065,-0.0016 -0.013,-0.0031 -0.01951,-0.0047 -0.0014,-0.0056 -0.0025,-0.01119 -0.0039,-0.01677 l 0.04681,-0.04681 c -0.02035,-0.0055 -0.04087,-0.0092 -0.06125,-0.01444 -0.0049,-0.01907 -0.0082,-0.0383 -0.01326,-0.05735 l -0.04408,0.04408 c -0.0068,-0.0017 -0.01354,-0.003 -0.02028,-0.0047 -0.0014,-0.0055 -0.0026,-0.01093 -0.0039,-0.01638 0.0031,-0.0031 0.0472,-0.0472 0.0472,-0.0472 -0.02048,-0.0055 -0.04114,-0.0092 -0.06164,-0.01444 -0.0049,-0.01905 -0.0082,-0.03832 -0.01326,-0.05735 -1.6e-5,1.8e-5 -0.04139,0.04139 -0.04408,0.04408 -0.0068,-0.0017 -0.01354,-0.003 -0.02029,-0.0047 -0.0014,-0.0054 -0.0022,-0.01096 -0.0035,-0.01638 0.003,-0.003 0.04681,-0.04681 0.04681,-0.04681 -0.02032,-0.0054 -0.0409,-0.0088 -0.06125,-0.01404 -0.005,-0.01918 -0.0081,-0.03858 -0.01326,-0.05774 -1.5e-5,1.6e-5 -0.04173,0.04173 -0.04447,0.04447 -0.0065,-0.0016 -0.013,-0.0031 -0.01951,-0.0047 -0.0014,-0.0056 -0.0025,-0.01119 -0.0039,-0.01677 0.003,-0.003 0.04681,-0.04681 0.04681,-0.04681 -0.02032,-0.0054 -0.0409,-0.0088 -0.06125,-0.01404 -0.005,-0.01919 -0.0081,-0.03856 -0.01326,-0.05774 -1.4e-5,1.5e-5 -0.04173,0.04173 -0.04447,0.04447 -0.0065,-0.0016 -0.013,-0.0031 -0.01951,-0.0047 -0.0014,-0.0056 -0.0025,-0.01119 -0.0039,-0.01677 0.003,-0.003 0.04681,-0.04681 0.04681,-0.04681 -0.02035,-0.0055 -0.04087,-0.0092 -0.06125,-0.01444 -0.005,-0.01918 -0.0081,-0.03858 -0.01326,-0.05774 -1.4e-5,1.3e-5 -0.04174,0.04174 -0.04447,0.04447 -0.0066,-0.0016 -0.01326,-0.0031 -0.01989,-0.0047 -0.0014,-0.0055 -0.0026,-0.01093 -0.0039,-0.01638 0.0031,-0.0031 0.0472,-0.0472 0.0472,-0.0472 -0.02048,-0.0055 -0.04114,-0.0092 -0.06164,-0.01444 -0.0049,-0.01905 -0.0082,-0.03832 -0.01326,-0.05735 -1.2e-5,1.2e-5 -0.04139,0.04139 -0.04408,0.04408 -0.0068,-0.0017 -0.01354,-0.003 -0.02029,-0.0047 -0.0014,-0.0054 -0.0022,-0.01095 -0.0035,-0.01638 0.003,-0.003 0.04681,-0.04681 0.04681,-0.04681 -0.02032,-0.0054 -0.0409,-0.0088 -0.06125,-0.01404 -0.005,-0.01919 -0.0081,-0.03856 -0.01326,-0.05774 -1e-5,1.1e-5 -0.04174,0.04174 -0.04447,0.04447 -0.0065,-0.0016 -0.013,-0.0031 -0.01951,-0.0047 -0.0014,-0.0056 -0.0025,-0.01119 -0.0039,-0.01677 0.003,-0.003 0.04681,-0.04681 0.04681,-0.04681 -0.02032,-0.0054 -0.0409,-0.0088 -0.06125,-0.01404 -0.005,-0.0192 -0.0081,-0.03856 -0.01326,-0.05774 l -0.04447,0.04447 c -0.0065,-0.0016 -0.013,-0.0031 -0.01951,-0.0047 -0.0014,-0.0056 -0.0025,-0.01119 -0.0039,-0.01677 0.003,-0.003 0.04681,-0.04681 0.04681,-0.04681 -0.0202,-0.0054 -0.04064,-0.0088 -0.06086,-0.01404 -0.005,-0.01933 -0.0085,-0.03882 -0.01366,-0.05813 -8e-6,8e-6 -0.04174,0.04174 -0.04447,0.04447 -0.0066,-0.0016 -0.01326,-0.0031 -0.01989,-0.0047 -0.0014,-0.0056 -0.0025,-0.01119 -0.0039,-0.01677 l 0.04681,-0.04681 c -0.02034,-0.0055 -0.04088,-0.0088 -0.06125,-0.01404 -0.005,-0.01917 -0.0081,-0.03858 -0.01326,-0.05774 -6e-6,7e-6 -0.04174,0.04174 -0.04447,0.04447 -0.0065,-0.0016 -0.013,-0.0031 -0.01951,-0.0047 -0.0014,-0.0056 -0.0025,-0.01119 -0.0039,-0.01677 l 0.04681,-0.04681 c -0.02032,-0.0054 -0.0409,-0.0088 -0.06125,-0.01404 -0.005,-0.01919 -0.0081,-0.03856 -0.01326,-0.05774 -6e-6,5e-6 -0.04174,0.04174 -0.04447,0.04447 -0.0065,-0.0016 -0.013,-0.0031 -0.01951,-0.0047 -0.0014,-0.0056 -0.0025,-0.01119 -0.0039,-0.01677 0.003,-0.003 0.04681,-0.04681 0.04681,-0.04681 -0.02035,-0.0055 -0.04087,-0.0092 -0.06125,-0.01444 -0.0049,-0.01907 -0.0082,-0.0383 -0.01326,-0.05735 l -0.04408,0.04408 c -0.0066,-0.0016 -0.01326,-0.0031 -0.01989,-0.0047 -0.0014,-0.0055 -0.0026,-0.01093 -0.0039,-0.01638 0.003,-0.003 0.04681,-0.04681 0.04681,-0.04681 v -3.99e-4 c -0.02035,-0.0055 -0.04087,-0.0092 -0.06125,-0.01443 -0.0049,-0.01906 -0.0082,-0.03831 -0.01326,-0.05735 -4e-6,3e-6 -0.0414,0.0414 -0.04408,0.04408 -0.0069,-0.0017 -0.0138,-0.003 -0.02068,-0.0047 -0.0014,-0.0054 -0.0022,-0.01095 -0.0035,-0.01638 0.003,-0.003 0.04681,-0.04681 0.04681,-0.04681 -0.02034,-0.0055 -0.04088,-0.0088 -0.06125,-0.01404 -0.005,-0.01918 -0.0081,-0.03858 -0.01326,-0.05774 -2e-6,1e-6 -0.04175,0.04175 -0.04447,0.04447 -0.0065,-0.0016 -0.013,-0.0031 -0.01951,-0.0047 -0.0014,-0.0056 -0.0025,-0.01119 -0.0039,-0.01677 0.003,-0.003 0.04681,-0.04681 0.04681,-0.04681 -0.02032,-0.0054 -0.0409,-0.0088 -0.06125,-0.01404 -0.005,-0.01919 -0.0081,-0.03856 -0.01326,-0.05774 l -0.04447,0.04447 c -0.01208,-0.003 -0.02419,-0.0057 -0.03628,-0.0086 0.0048,-0.0048 0.05969,-0.05969 0.05969,-0.05969 -0.05156,-0.01382 -0.103552,-0.0238 -0.155263,-0.03628 0.0048,-0.0048 0.05969,-0.05969 0.05969,-0.05969 -0.05157,-0.01382 -0.103542,-0.0238 -0.155265,-0.03628 0.0048,-0.0048 0.0593,-0.0593 0.0593,-0.0593 -0.05154,-0.01381 -0.103572,-0.02341 -0.155264,-0.03589 0.0048,-0.0048 0.05969,-0.05969 0.05969,-0.05969 -0.05154,-0.01381 -0.10357,-0.02341 -0.155264,-0.03589 0.0048,-0.0048 0.05969,-0.05969 0.05969,-0.05969 -0.05156,-0.01382 -0.103552,-0.0238 -0.155266,-0.03628 0.0048,-0.0048 0.05969,-0.05969 0.05969,-0.05969 -0.05157,-0.01382 -0.103542,-0.02379 -0.155263,-0.03628 0.0048,-0.0048 0.05929,-0.0593 0.05929,-0.0593 -0.05154,-0.01381 -0.103569,-0.02341 -0.155263,-0.03589 0.0048,-0.0048 0.05969,-0.05969 0.05969,-0.05969 -0.05154,-0.01381 -0.103569,-0.02341 -0.155265,-0.03589 0.0049,-0.0048 0.05969,-0.05969 0.05969,-0.05969 -0.05168,-0.01385 -0.10382,-0.02377 -0.155653,-0.03628 0.0049,-0.0049 0.05967,-0.05967 0.05969,-0.05969 -0.05159,-0.01382 -0.103523,-0.0234 -0.155263,-0.03589 0.0049,-0.0048 0.05969,-0.05969 0.05969,-0.05969 -0.05154,-0.01381 -0.103569,-0.02341 -0.155265,-0.03589 0.0049,-0.0048 0.05969,-0.05969 0.05969,-0.05969 -0.05156,-0.01382 -0.103551,-0.0238 -0.155263,-0.03628 l 0.05969,-0.05969 c -0.05157,-0.01382 -0.103541,-0.02379 -0.155265,-0.03628 0.0048,-0.0048 0.0593,-0.0593 0.0593,-0.0593 -0.05159,-0.01382 -0.103523,-0.0234 -0.155265,-0.03589 0.0049,-0.0048 0.05969,-0.05969 0.05969,-0.05969 -0.05154,-0.01381 -0.103569,-0.02341 -0.155263,-0.03589 0.0049,-0.0048 0.05969,-0.05969 0.05969,-0.05969 -0.05156,-0.01382 -0.103551,-0.0238 -0.155265,-0.03628 0.0048,-0.0048 0.05969,-0.05969 0.05969,-0.05969 -0.05157,-0.01382 -0.103541,-0.02379 -0.155263,-0.03628 l 0.0593,-0.0593 c -0.05154,-0.01381 -0.10357,-0.02341 -0.155263,-0.03589 0.0049,-0.0048 0.05969,-0.05969 0.05969,-0.05969 -0.05154,-0.01381 -0.103569,-0.02341 -0.155265,-0.03589 0.0049,-0.0048 0.05969,-0.05969 0.05969,-0.05969 -0.05168,-0.01385 -0.103817,-0.02377 -0.155655,-0.03628 0.0049,-0.0049 0.05967,-0.05967 0.05969,-0.05969 -0.05159,-0.01382 -0.103524,-0.0234 -0.155264,-0.03589 0.0049,-0.0048 0.05969,-0.05969 0.05969,-0.05969 -0.05154,-0.01381 -0.10357,-0.02341 -0.155265,-0.03589 l 0.05969,-0.05969 c -0.05144,-0.01378 -0.103286,-0.02382 -0.154874,-0.03628 l 0.0593,-0.0593 v -3.99e-4 c -0.05157,-0.01382 -0.10354,-0.02379 -0.155263,-0.03628 l 0.0593,-0.0593 c -0.05159,-0.01382 -0.103523,-0.0234 -0.155265,-0.03589 l 0.05969,-0.05969 c -0.05154,-0.01381 -0.10357,-0.02341 -0.155264,-0.03589 l 0.05969,-0.05969 c -0.05156,-0.01382 -0.103552,-0.0238 -0.155264,-0.03628 0.0049,-0.0048 0.05969,-0.05969 0.05969,-0.05969 -0.05157,-0.01382 -0.103542,-0.02379 -0.155263,-0.03628 0.0048,-0.0048 0.05929,-0.0593 0.05929,-0.0593 -0.05159,-0.01382 -0.103523,-0.0234 -0.155263,-0.03589 l 0.05968,-0.05969 c -0.05154,-0.01381 -0.103569,-0.02341 -0.155263,-0.03589 0.0049,-0.0048 0.05969,-0.05969 0.05969,-0.05969 -0.05156,-0.01381 -0.103551,-0.0238 -0.155263,-0.03628 0.0048,-0.0048 0.05969,-0.05969 0.05969,-0.05969 -0.05157,-0.01382 -0.10354,-0.02379 -0.155264,-0.03628 0.0048,-0.0048 0.0593,-0.0593 0.0593,-0.0593 -0.05154,-0.01381 -0.103569,-0.02341 -0.155263,-0.03589 0.0049,-0.0048 0.05969,-0.05969 0.05969,-0.05969 -0.05154,-0.01381 -0.103569,-0.02341 -0.155263,-0.03589 0.0049,-0.0048 0.05969,-0.05969 0.05969,-0.05969 -0.05168,-0.01385 -0.103817,-0.02377 -0.155652,-0.03628 0.0049,-0.0049 0.05967,-0.05967 0.05969,-0.05969 -0.05159,-0.01382 -0.103522,-0.0234 -0.155263,-0.03589 l 0.05969,-0.05969 c -0.05154,-0.01381 -0.103569,-0.02341 -0.155263,-0.03589 0.0049,-0.0049 0.05969,-0.05969 0.05969,-0.05969 -0.05156,-0.01382 -0.103551,-0.0238 -0.155263,-0.03628 0.0049,-0.0048 0.05969,-0.05969 0.05969,-0.05969 -0.05157,-0.01382 -0.103541,-0.02379 -0.155265,-0.03628 0.0048,-0.0048 0.0593,-0.0593 0.0593,-0.0593 -0.05159,-0.01382 -0.103524,-0.0234 -0.155263,-0.03589 0.0049,-0.0049 0.05969,-0.05969 0.05969,-0.05969 -0.05154,-0.01381 -0.10357,-0.02341 -0.155263,-0.03589 l 0.05969,-0.05969 c -0.05156,-0.01382 -0.103551,-0.0238 -0.155265,-0.03628 0.0049,-0.0048 0.05969,-0.05969 0.05969,-0.05969 -0.05157,-0.01382 -0.103539,-0.02379 -0.155263,-0.03628 0.0048,-0.0048 0.0593,-0.0593 0.0593,-0.0593 -0.05154,-0.01381 -0.10357,-0.02341 -0.155264,-0.03589 l 0.05969,-0.05969 c -0.05154,-0.01381 -0.10357,-0.02341 -0.155265,-0.03589 0.0049,-0.0048 0.05969,-0.05969 0.05969,-0.05969 -0.05156,-0.01382 -0.103552,-0.0238 -0.155263,-0.03628 l 0.05969,-0.05969 c -0.05157,-0.01382 -0.103542,-0.02379 -0.155265,-0.03628 l 0.0593,-0.0593 c -0.5519,-0.146524 -1.111787,-0.218087 -1.667247,-0.217006 z"
		id="path6771"
		inkscape:connector-curvature="0"/>
	<path
		style="opacity:1;fill:#f2f2f2;stroke-width:0.25586751"
		d="m 7.4888779,108.47345 a 6.3915679,6.3915679 0 0 0 -1.6493053,6.16883 l 1.4068334,-1.40684 1.1971875,-1.19719 1.4123506,-1.41234 3.5642539,0.95526 0.955267,3.56425 -1.41235,1.41236 -1.197188,1.19718 -1.405454,1.40546 a 6.3915679,6.3915679 0 0 0 6.167447,-1.64793 6.3915679,6.3915679 0 0 0 1.647926,-6.16745 l 9.650878,-9.65088 9.650877,-9.650868 a 6.3915677,6.3915677 0 0 0 6.167447,-1.64793 6.3915677,6.3915677 0 0 0 1.647926,-6.167445 l -1.405454,1.405453 -1.197188,1.197188 -1.412351,1.412353 -3.564252,-0.95527 -0.955269,-3.564253 1.412351,-1.412353 1.197188,-1.197189 1.406833,-1.406827 a 6.3915677,6.3915677 0 0 0 -6.168826,1.649304 6.3915677,6.3915677 0 0 0 -1.649305,6.168828 l -9.649499,9.649496 -9.649497,9.649493 a 6.3915679,6.3915679 0 0 0 -6.1688271,1.64931 z"
		id="path4574"
		inkscape:connector-curvature="0"/>
</svg>
