<?xml version="1.0" encoding="UTF-8" standalone="no"?>
<!-- Created with Inkscape (http://www.inkscape.org/) -->

<svg
	id="svg4249"
	version="1.1"
	viewBox="0 0 80 80"
	xmlns="http://www.w3.org/2000/svg"
	xmlns:cc="http://creativecommons.org/ns#"
	xmlns:dc="http://purl.org/dc/elements/1.1/"
	xmlns:inkscape="http://www.inkscape.org/namespaces/inkscape"
	xmlns:rdf="http://www.w3.org/1999/02/22-rdf-syntax-ns#"
	xmlns:sodipodi="http://sodipodi.sourceforge.net/DTD/sodipodi-0.dtd"
	inkscape:version="0.91 r13725"
	sodipodi:docname="germinate.svg">
	<defs
		id="defs4251">
		<filter
			style="color-interpolation-filters:sRGB"
			id="filter4349"
			inkscape:label="Drop Shadow">
			<feFlood
				flood-color="rgb(0,0,0)"
				flood-opacity="0.498039"
				id="feFlood4351"
				result="flood"/>
			<feComposite
				id="feComposite4353"
				in="flood"
				in2="SourceGraphic"
				operator="in"
				result="composite1"/>
			<feGaussianBlur
				id="feGaussianBlur4355"
				in="composite1"
				result="blur"
				stdDeviation="1.5"/>
			<feOffset
				dx="1.5"
				dy="1.5"
				id="feOffset4357"
				result="offset"/>
			<feComposite
				id="feComposite4359"
				in="SourceGraphic"
				in2="offset"
				operator="over"
				result="composite2"/>
		</filter>
		<clipPath
			clipPathUnits="userSpaceOnUse"
			id="clipPath3924-1-4">
			<rect
				style="fill:#333333;fill-opacity:1;fill-rule:nonzero;stroke:none"
				height="38.724556"
				id="rect3926-7-5"
				ry="1.3990355"
				width="35.590778"
				x="26.883356"
				y="103.75703"
				inkscape:export-filename="C:\Users\sr41756\Desktop\GerminateMobile.png"
				inkscape:export-xdpi="614.40002"
				inkscape:export-ydpi="614.40002"/>
		</clipPath>
		<filter
			style="color-interpolation-filters:sRGB"
			height="1.9203367"
			id="filter3917-4-4"
			width="2.0013728"
			x="-0.50068635"
			y="-0.46016833"
			inkscape:collect="always">
			<feGaussianBlur
				id="feGaussianBlur3919-0-4"
				stdDeviation="5.9399386"
				inkscape:collect="always"/>
		</filter>
	</defs>
	<sodipodi:namedview
		bordercolor="#666666"
		borderopacity="1.0"
		fit-margin-bottom="0"
		fit-margin-left="0"
		fit-margin-right="0"
		fit-margin-top="0"
		id="base"
		pagecolor="#ffffff"
		showgrid="false"
		units="px"
		inkscape:current-layer="layer1"
		inkscape:cx="28.806383"
		inkscape:cy="7.6851296"
		inkscape:document-units="px"
		inkscape:pageopacity="0.0"
		inkscape:pageshadow="2"
		inkscape:window-height="1018"
		inkscape:window-maximized="1"
		inkscape:window-width="1920"
		inkscape:window-x="-8"
		inkscape:window-y="-8"
		inkscape:zoom="5.6"/>
	<metadata
		id="metadata4254">
		<rdf:RDF>
			<cc:Work
				rdf:about="">
				<dc:format>image/svg+xml</dc:format>
				<dc:type
					rdf:resource="http://purl.org/dc/dcmitype/StillImage"/>
				<dc:title></dc:title>
			</cc:Work>
		</rdf:RDF>
	</metadata>
	<g
		id="layer1"
		transform="translate(-223.42853,-6.0764915)"
		inkscape:groupmode="layer"
		inkscape:label="Layer 1">
		<g
			id="g4373"
			transform="translate(1004.6555,218.73972)">
			<g
				id="g4367"
				transform="matrix(1.0666667,0,0,1.0666667,63.734281,16.159693)">
				<path
					style="fill:#00b200;fill-opacity:1;fill-rule:evenodd;stroke:none;stroke-width:0.27823806px;stroke-linecap:butt;stroke-linejoin:miter;stroke-miterlimit:4;stroke-dasharray:none;stroke-opacity:1"
					d="m -722.35232,-200.8125 c -1.82919,2.40678 -3.94741,4.62143 -6.25781,6.54687 -2.98441,2.50305 -6.35339,4.52532 -10.01172,5.87305 -1.92544,0.67394 -3.94775,1.15362 -5.87305,1.92383 -1.9254,0.67388 -3.75452,1.63657 -5.29492,2.98438 -2.0217,1.92546 -3.27244,4.71802 -3.46484,7.50976 -0.1926,2.69563 0.67335,5.48805 2.40625,7.50977 0.21739,0.26087 0.45521,0.49977 0.70117,0.73047 l -7.375,5.61914 a 5.8592741,4.6494049 0 0 0 -2.40234,-0.41407 5.8592741,4.6494049 0 0 0 -2.78711,0.56446 l -4.33985,-4.42188 c 0.10905,-0.11176 0.21629,-0.22508 0.31836,-0.3457 1.2516,-1.44408 1.82872,-3.36949 1.73242,-5.29492 -0.1924,-2.02171 -1.05785,-3.94531 -2.50195,-5.29297 -1.059,-0.96273 -2.40806,-1.63775 -3.75586,-2.11914 -1.3478,-0.57764 -2.79097,-0.96197 -4.13867,-1.44336 -2.5994,-0.96269 -5.007,-2.31149 -7.125,-4.14063 -1.6366,-1.34785 -3.17624,-2.89013 -4.42774,-4.62304 0.096,3.65833 0.57551,7.31681 1.34571,10.8789 0.5776,2.50306 1.3486,5.00782 2.5039,7.31836 1.2515,2.40677 2.98393,4.62096 5.39063,5.96875 2.0218,1.15528 4.52739,1.63566 6.83789,1.1543 1.03623,-0.2439 1.99317,-0.64192 2.82617,-1.21875 l 3.26758,5.0625 a 5.8592741,4.6494049 0 0 0 -1.00586,2.60156 5.8592741,4.6494049 0 0 0 5.85938,4.65039 5.8592741,4.6494049 0 0 0 5.85937,-4.65039 5.8592741,4.6494049 0 0 0 -0.64063,-2.11328 l 0.006,0 5.85743,-6.72461 c 1.13848,0.73176 2.43431,1.23708 3.76953,1.52734 3.2731,0.67392 6.83641,-0.002 9.72461,-1.63867 3.27323,-1.92547 5.77492,-5.00548 7.50781,-8.375 1.63649,-3.17685 2.69463,-6.64104 3.46484,-10.20312 1.15526,-5.10241 1.83105,-10.20564 2.02344,-15.4043 z"
					id="path4363"
					inkscape:connector-curvature="0"/>
				<path
					style="fill:#333333;fill-opacity:1;fill-rule:nonzero;stroke:none;filter:url(#filter4349)"
					d="m -789.44021,-214.52148 c -1.5011,0 -2.71094,1.20787 -2.71094,2.70898 l 0,69.58203 c 0,1.50112 1.20984,2.70899 2.71094,2.70899 l 69.58008,0 c 1.50111,0 2.70898,-1.20787 2.70898,-2.70899 l 0,-69.58203 c 0,-1.50111 -1.20787,-2.70898 -2.70898,-2.70898 l -69.58008,0 z m 67.08789,13.70898 c -0.19239,5.19866 -0.86818,10.30189 -2.02344,15.4043 -0.77021,3.56208 -1.82835,7.02627 -3.46484,10.20312 -1.73289,3.36952 -4.23459,6.44953 -7.50781,8.375 -2.8882,1.6371 -6.45151,2.31259 -9.72461,1.63867 -1.33522,-0.29026 -2.63105,-0.79558 -3.76953,-1.52734 l -5.85743,6.72461 -0.006,0 a 5.8592741,4.6494049 0 0 1 0.64063,2.11328 5.8592741,4.6494049 0 0 1 -5.85937,4.65039 5.8592741,4.6494049 0 0 1 -5.85938,-4.65039 5.8592741,4.6494049 0 0 1 1.00586,-2.60156 l -3.26758,-5.0625 c -0.833,0.57683 -1.78994,0.97485 -2.82617,1.21875 -2.3105,0.48136 -4.81609,9.8e-4 -6.83789,-1.1543 -2.4067,-1.34779 -4.13913,-3.56198 -5.39063,-5.96875 -1.1553,-2.31054 -1.9263,-4.8153 -2.5039,-7.31836 -0.7702,-3.56209 -1.24971,-7.22057 -1.34571,-10.8789 1.2515,1.73291 2.79114,3.27519 4.42774,4.62304 2.118,1.82914 4.5256,3.17794 7.125,4.14063 1.3477,0.48139 2.79087,0.86572 4.13867,1.44336 1.3478,0.48139 2.69686,1.15641 3.75586,2.11914 1.4441,1.34766 2.30955,3.27126 2.50195,5.29297 0.0963,1.92543 -0.48082,3.85084 -1.73242,5.29492 -0.10207,0.12062 -0.20931,0.23394 -0.31836,0.3457 l 4.33985,4.42188 a 5.8592741,4.6494049 0 0 1 2.78711,-0.56446 5.8592741,4.6494049 0 0 1 2.40234,0.41407 l 7.375,-5.61914 c -0.24596,-0.2307 -0.48378,-0.4696 -0.70117,-0.73047 -1.7329,-2.02172 -2.59885,-4.81414 -2.40625,-7.50977 0.1924,-2.79174 1.44314,-5.58431 3.46484,-7.50976 1.5404,-1.34781 3.36952,-2.3105 5.29492,-2.98438 1.9253,-0.77021 3.94761,-1.24989 5.87305,-1.92383 3.65833,-1.34773 7.02731,-3.37 10.01172,-5.87305 2.3104,-1.92544 4.42862,-4.14009 6.25781,-6.54687 z"
					id="path4365"
					inkscape:connector-curvature="0"/>
			</g>
			<ellipse
				style="fill:#ffffff;fill-opacity:0.35449733;fill-rule:nonzero;stroke:none;filter:url(#filter3917-4-4)"
				clip-path="url(#clipPath3924-1-4)"
				cx="44.678738"
				cy="108.9203"
				id="ellipse4371"
				rx="14.236311"
				ry="15.489823"
				transform="matrix(2.2477732,0,0,2.0658724,-841.77771,-427.05216)"
				inkscape:export-filename="C:\Users\sr41756\Desktop\GerminateScan.png"
				inkscape:export-xdpi="614.40002"
				inkscape:export-ydpi="614.40002"/>
		</g>
	</g>
</svg>
